<svg width="300" height="60" viewBox="0 0 300 60" fill="none" xmlns="http://www.w3.org/2000/svg">
<rect width="300" height="60" rx="5" fill="#FFEB00"/>
<path d="M58.3 22.84C57.9933 22.84 57.7667 22.7333 57.62 22.52C57.4733 22.3067 57.4 22.0533 57.4 21.76C57.4 21.4667 57.4733 21.2133 57.62 21C57.7667 20.7867 57.9933 20.68 58.3 20.68H64.24C64.88 20.68 65.32 20.8 65.56 21.04C65.8133 21.28 65.94 21.7133 65.94 22.34V24.8C65.94 25.4 65.9 25.9467 65.82 26.44C65.7533 26.92 65.6267 27.3733 65.44 27.8C65.2533 28.2133 64.9933 28.6133 64.66 29C64.3267 29.3867 63.9 29.7867 63.38 30.2C62.86 30.6133 62.2333 31.0533 61.5 31.52C60.78 31.9733 59.9267 32.4867 58.94 33.06C58.66 33.22 58.3733 33.2533 58.08 33.16C57.7867 33.0667 57.56 32.8867 57.4 32.62C57.24 32.3667 57.1667 32.08 57.18 31.76C57.2067 31.44 57.3733 31.1933 57.68 31.02C58.5867 30.5 59.36 30.0467 60 29.66C60.64 29.2733 61.1733 28.9267 61.6 28.62C62.04 28.3133 62.38 28.0333 62.62 27.78C62.8733 27.5267 63.06 27.2667 63.18 27L57.88 27.34C57.5733 27.3667 57.34 27.28 57.18 27.08C57.0333 26.8667 56.9467 26.6067 56.92 26.3C56.8933 26.0333 56.9467 25.78 57.08 25.54C57.2133 25.3 57.4333 25.1733 57.74 25.16L63.46 24.94V23.3C63.46 22.9933 63.3067 22.84 63 22.84H58.3ZM72.98 25.24C73.3 25.24 73.5333 25.3467 73.68 25.56C73.8267 25.7733 73.9 26.0333 73.9 26.34C73.9 26.6467 73.8267 26.9133 73.68 27.14C73.5333 27.3533 73.3 27.46 72.98 27.46H71.1V35.74C71.1 36.1133 70.9667 36.3867 70.7 36.56C70.4467 36.7333 70.1533 36.82 69.82 36.82C69.4867 36.82 69.1867 36.7333 68.92 36.56C68.6667 36.3867 68.54 36.1133 68.54 35.74V20.42C68.54 20.0467 68.6667 19.7733 68.92 19.6C69.1867 19.4267 69.4867 19.34 69.82 19.34C70.1533 19.34 70.4467 19.4267 70.7 19.6C70.9667 19.7733 71.1 20.0467 71.1 20.42V25.24H72.98ZM76.5031 22.84C76.1965 22.84 75.9698 22.7333 75.8231 22.52C75.6765 22.3067 75.6031 22.0533 75.6031 21.76C75.6031 21.4667 75.6765 21.2133 75.8231 21C75.9698 20.7867 76.1965 20.68 76.5031 20.68H82.4431C83.0831 20.68 83.5231 20.8 83.7631 21.04C84.0165 21.28 84.1431 21.7133 84.1431 22.34V24.8C84.1431 25.4 84.1031 25.9467 84.0231 26.44C83.9565 26.92 83.8298 27.3733 83.6431 27.8C83.4565 28.2133 83.1965 28.6133 82.8631 29C82.5298 29.3867 82.1031 29.7867 81.5831 30.2C81.0631 30.6133 80.4365 31.0533 79.7031 31.52C78.9831 31.9733 78.1298 32.4867 77.1431 33.06C76.8631 33.22 76.5765 33.2533 76.2831 33.16C75.9898 33.0667 75.7631 32.8867 75.6031 32.62C75.4431 32.3667 75.3698 32.08 75.3831 31.76C75.4098 31.44 75.5765 31.1933 75.8831 31.02C76.7898 30.5 77.5631 30.0467 78.2031 29.66C78.8431 29.2733 79.3765 28.9267 79.8031 28.62C80.2431 28.3133 80.5831 28.0333 80.8231 27.78C81.0765 27.5267 81.2631 27.2667 81.3831 27L76.0831 27.34C75.7765 27.3667 75.5431 27.28 75.3831 27.08C75.2365 26.8667 75.1498 26.6067 75.1231 26.3C75.0965 26.0333 75.1498 25.78 75.2831 25.54C75.4165 25.3 75.6365 25.1733 75.9431 25.16L81.6631 24.94V23.3C81.6631 22.9933 81.5098 22.84 81.2031 22.84H76.5031ZM91.1831 25.24C91.5031 25.24 91.7365 25.3467 91.8831 25.56C92.0298 25.7733 92.1031 26.0333 92.1031 26.34C92.1031 26.6467 92.0298 26.9133 91.8831 27.14C91.7365 27.3533 91.5031 27.46 91.1831 27.46H89.3031V35.74C89.3031 36.1133 89.1698 36.3867 88.9031 36.56C88.6498 36.7333 88.3565 36.82 88.0231 36.82C87.6898 36.82 87.3898 36.7333 87.1231 36.56C86.8698 36.3867 86.7431 36.1133 86.7431 35.74V20.42C86.7431 20.0467 86.8698 19.7733 87.1231 19.6C87.3898 19.4267 87.6898 19.34 88.0231 19.34C88.3565 19.34 88.6498 19.4267 88.9031 19.6C89.1698 19.7733 89.3031 20.0467 89.3031 20.42V25.24H91.1831ZM95.1863 25.04C95.1863 24.24 95.3329 23.5333 95.6263 22.92C95.9196 22.2933 96.3329 21.7667 96.8663 21.34C97.4129 20.9133 98.0729 20.5933 98.8463 20.38C99.6329 20.1533 100.52 20.04 101.506 20.04C102.48 20.04 103.36 20.1533 104.146 20.38C104.933 20.5933 105.593 20.9133 106.126 21.34C106.673 21.7667 107.093 22.2933 107.386 22.92C107.68 23.5333 107.826 24.24 107.826 25.04C107.826 25.84 107.68 26.5533 107.386 27.18C107.093 27.7933 106.673 28.3133 106.126 28.74C105.593 29.1667 104.933 29.4933 104.146 29.72C103.36 29.9333 102.48 30.04 101.506 30.04C100.52 30.04 99.6329 29.9333 98.8463 29.72C98.0729 29.4933 97.4129 29.1667 96.8663 28.74C96.3329 28.3133 95.9196 27.7933 95.6263 27.18C95.3329 26.5533 95.1863 25.84 95.1863 25.04ZM105.266 25.04C105.266 24.64 105.193 24.2667 105.046 23.92C104.913 23.5733 104.693 23.2733 104.386 23.02C104.08 22.7667 103.686 22.5667 103.206 22.42C102.74 22.2733 102.173 22.2 101.506 22.2C100.84 22.2 100.266 22.2733 99.7863 22.42C99.3196 22.5667 98.9329 22.7667 98.6263 23.02C98.3196 23.2733 98.0929 23.5733 97.9463 23.92C97.8129 24.2667 97.7463 24.64 97.7463 25.04C97.7463 25.44 97.8129 25.8133 97.9463 26.16C98.0929 26.5067 98.3196 26.8067 98.6263 27.06C98.9329 27.3133 99.3196 27.5133 99.7863 27.66C100.266 27.8067 100.84 27.88 101.506 27.88C102.173 27.88 102.74 27.8067 103.206 27.66C103.686 27.5133 104.08 27.3133 104.386 27.06C104.693 26.8067 104.913 26.5067 105.046 26.16C105.193 25.8133 105.266 25.44 105.266 25.04ZM93.9463 35.18C93.6396 35.18 93.4129 35.0733 93.2663 34.86C93.1196 34.6467 93.0463 34.3933 93.0463 34.1C93.0463 33.8067 93.1196 33.5533 93.2663 33.34C93.4129 33.1267 93.6396 33.02 93.9463 33.02H100.226V28.62H102.786V33.02H109.066C109.373 33.02 109.6 33.1267 109.746 33.34C109.893 33.5533 109.966 33.8067 109.966 34.1C109.966 34.3933 109.893 34.6467 109.746 34.86C109.6 35.0733 109.373 35.18 109.066 35.18H93.9463ZM115.909 25.56C115.909 25.76 116.009 25.86 116.209 25.86H125.389C125.669 25.86 125.876 25.96 126.009 26.16C126.143 26.36 126.209 26.5933 126.209 26.86C126.209 27.1267 126.143 27.36 126.009 27.56C125.876 27.76 125.669 27.86 125.389 27.86H115.149C114.509 27.86 114.063 27.74 113.809 27.5C113.569 27.26 113.449 26.8267 113.449 26.2V21.54C113.449 20.9133 113.569 20.48 113.809 20.24C114.063 20 114.509 19.88 115.149 19.88H125.089C125.369 19.88 125.576 19.98 125.709 20.18C125.843 20.38 125.909 20.6133 125.909 20.88C125.909 21.1467 125.843 21.38 125.709 21.58C125.576 21.78 125.369 21.88 125.089 21.88H116.209C116.009 21.88 115.909 21.98 115.909 22.18V22.9H124.909C125.176 22.9 125.376 22.9933 125.509 23.18C125.643 23.3667 125.709 23.5933 125.709 23.86C125.709 24.1267 125.643 24.3533 125.509 24.54C125.376 24.7267 125.176 24.82 124.909 24.82H115.909V25.56ZM112.129 31.18C111.823 31.18 111.596 31.08 111.449 30.88C111.316 30.68 111.249 30.4333 111.249 30.14C111.249 29.86 111.316 29.62 111.449 29.42C111.596 29.22 111.823 29.12 112.129 29.12H118.449V26.84H120.969V29.12H127.289C127.596 29.12 127.816 29.22 127.949 29.42C128.096 29.62 128.169 29.86 128.169 30.14C128.169 30.4333 128.096 30.68 127.949 30.88C127.816 31.08 127.596 31.18 127.289 31.18H112.129ZM126.009 37.14C126.009 37.5133 125.876 37.7867 125.609 37.96C125.356 38.1333 125.069 38.22 124.749 38.22C124.416 38.22 124.116 38.1333 123.849 37.96C123.596 37.7867 123.469 37.5133 123.469 37.14V34.72C123.469 34.4133 123.316 34.26 123.009 34.26H114.049C113.743 34.26 113.516 34.16 113.369 33.96C113.236 33.76 113.169 33.5067 113.169 33.2C113.169 32.92 113.236 32.68 113.369 32.48C113.516 32.28 113.743 32.18 114.049 32.18H124.309C124.949 32.18 125.389 32.3 125.629 32.54C125.883 32.78 126.009 33.2133 126.009 33.84V37.14ZM131.593 25.16C131.593 24.36 131.739 23.6467 132.033 23.02C132.326 22.3933 132.739 21.8667 133.273 21.44C133.819 21.0133 134.479 20.6867 135.253 20.46C136.039 20.2333 136.926 20.12 137.913 20.12C138.886 20.12 139.766 20.2333 140.553 20.46C141.339 20.6867 141.999 21.0133 142.533 21.44C143.079 21.8667 143.499 22.3933 143.793 23.02C144.086 23.6467 144.233 24.36 144.233 25.16C144.233 25.96 144.086 26.6733 143.793 27.3C143.499 27.9267 143.079 28.4533 142.533 28.88C141.999 29.3067 141.339 29.6333 140.553 29.86C139.766 30.0867 138.886 30.2 137.913 30.2C136.926 30.2 136.039 30.0867 135.253 29.86C134.479 29.6333 133.819 29.3067 133.273 28.88C132.739 28.4533 132.326 27.9267 132.033 27.3C131.739 26.6733 131.593 25.96 131.593 25.16ZM141.673 25.16C141.673 24.76 141.599 24.3867 141.453 24.04C141.319 23.68 141.099 23.3733 140.793 23.12C140.486 22.8533 140.093 22.6467 139.613 22.5C139.146 22.3533 138.579 22.28 137.913 22.28C137.246 22.28 136.673 22.3533 136.193 22.5C135.726 22.6467 135.339 22.8533 135.033 23.12C134.726 23.3733 134.499 23.68 134.353 24.04C134.219 24.3867 134.153 24.76 134.153 25.16C134.153 25.56 134.219 25.94 134.353 26.3C134.499 26.6467 134.726 26.9533 135.033 27.22C135.339 27.4733 135.726 27.6733 136.193 27.82C136.673 27.9667 137.246 28.04 137.913 28.04C138.579 28.04 139.146 27.9667 139.613 27.82C140.093 27.6733 140.486 27.4733 140.793 27.22C141.099 26.9533 141.319 26.6467 141.453 26.3C141.599 25.94 141.673 25.56 141.673 25.16ZM130.353 35.18C130.046 35.18 129.819 35.0733 129.673 34.86C129.526 34.6467 129.453 34.3933 129.453 34.1C129.453 33.7933 129.526 33.5333 129.673 33.32C129.819 33.1067 130.046 33 130.353 33H145.473C145.779 33 146.006 33.1067 146.153 33.32C146.299 33.5333 146.373 33.7933 146.373 34.1C146.373 34.3933 146.299 34.6467 146.153 34.86C146.006 35.0733 145.779 35.18 145.473 35.18H130.353ZM160.616 20.38C161.256 20.38 161.696 20.5 161.936 20.74C162.189 20.98 162.316 21.4133 162.316 22.04V24.72C162.316 25.3467 162.189 25.78 161.936 26.02C161.696 26.26 161.256 26.38 160.616 26.38H152.856C152.549 26.38 152.396 26.5333 152.396 26.84V27.7C152.396 28.0067 152.549 28.16 152.856 28.16H161.816C162.122 28.16 162.349 28.2667 162.496 28.48C162.642 28.6933 162.716 28.9467 162.716 29.24C162.716 29.5333 162.642 29.7867 162.496 30C162.349 30.2133 162.122 30.32 161.816 30.32H151.576C150.936 30.32 150.489 30.2 150.236 29.96C149.996 29.72 149.876 29.2867 149.876 28.66V25.96C149.876 25.3333 149.996 24.9 150.236 24.66C150.489 24.42 150.936 24.3 151.576 24.3H159.336C159.642 24.3 159.796 24.1467 159.796 23.84V23C159.796 22.6933 159.642 22.54 159.336 22.54H150.736C150.429 22.54 150.202 22.4333 150.056 22.22C149.909 22.0067 149.836 21.7533 149.836 21.46C149.836 21.1667 149.909 20.9133 150.056 20.7C150.202 20.4867 150.429 20.38 150.736 20.38H160.616ZM148.556 35.18C148.249 35.18 148.022 35.0733 147.876 34.86C147.729 34.6467 147.656 34.3933 147.656 34.1C147.656 33.8067 147.729 33.5533 147.876 33.34C148.022 33.1267 148.249 33.02 148.556 33.02H154.836V29.24H157.396V33.02H163.676C163.982 33.02 164.209 33.1267 164.356 33.34C164.502 33.5533 164.576 33.8067 164.576 34.1C164.576 34.3933 164.502 34.6467 164.356 34.86C164.209 35.0733 163.982 35.18 163.676 35.18H148.556ZM178.059 24.16C178.059 24.56 178.085 24.9267 178.139 25.26C178.205 25.5933 178.299 25.9133 178.419 26.22C178.539 26.5267 178.692 26.8267 178.879 27.12C179.079 27.4 179.319 27.6933 179.599 28C179.959 28.3867 180.319 28.7667 180.679 29.14C181.052 29.5133 181.392 29.8333 181.699 30.1C181.952 30.3267 182.052 30.6 181.999 30.92C181.945 31.2267 181.819 31.4867 181.619 31.7C181.525 31.7933 181.412 31.8733 181.279 31.94C181.145 32.0067 181.005 32.0533 180.859 32.08C180.725 32.0933 180.585 32.08 180.439 32.04C180.305 32 180.179 31.9267 180.059 31.82C179.792 31.58 179.499 31.3067 179.179 31C178.872 30.68 178.559 30.3467 178.239 30C177.705 29.44 177.339 29.02 177.139 28.74C176.939 28.4467 176.819 28.2 176.779 28H176.759C176.732 28.12 176.685 28.2467 176.619 28.38C176.565 28.5 176.485 28.64 176.379 28.8C176.272 28.9467 176.125 29.1267 175.939 29.34C175.765 29.54 175.545 29.78 175.279 30.06C174.959 30.4067 174.625 30.7467 174.279 31.08C173.945 31.4133 173.579 31.7667 173.179 32.14C172.925 32.3667 172.639 32.44 172.319 32.36C172.012 32.2667 171.765 32.12 171.579 31.92C171.379 31.6933 171.272 31.4267 171.259 31.12C171.245 30.8133 171.359 30.5467 171.599 30.32C172.425 29.56 173.199 28.7867 173.919 28C174.199 27.6933 174.432 27.4 174.619 27.12C174.819 26.8267 174.979 26.5267 175.099 26.22C175.219 25.9133 175.305 25.5933 175.359 25.26C175.425 24.9267 175.459 24.56 175.459 24.16V21.36C175.459 20.9733 175.585 20.6933 175.839 20.52C176.105 20.3467 176.412 20.26 176.759 20.26C177.105 20.26 177.405 20.3467 177.659 20.52C177.925 20.6933 178.059 20.9733 178.059 21.36V24.16ZM186.179 35.74C186.179 36.1133 186.045 36.3867 185.779 36.56C185.525 36.7333 185.225 36.82 184.879 36.82C184.545 36.82 184.245 36.7333 183.979 36.56C183.725 36.3867 183.599 36.1133 183.599 35.74V20.42C183.599 20.0467 183.725 19.7733 183.979 19.6C184.245 19.4267 184.545 19.34 184.879 19.34C185.225 19.34 185.525 19.4267 185.779 19.6C186.045 19.7733 186.179 20.0467 186.179 20.42V35.74ZM195.862 22.52V23.02C195.862 23.6333 195.955 24.1467 196.142 24.56C196.329 24.9733 196.635 25.36 197.062 25.72C197.502 26.08 197.909 26.4067 198.282 26.7C198.669 26.98 199.009 27.2267 199.302 27.44C199.582 27.64 199.729 27.8867 199.742 28.18C199.755 28.46 199.669 28.7267 199.482 28.98C199.402 29.0867 199.309 29.1867 199.202 29.28C199.095 29.36 198.969 29.42 198.822 29.46C198.689 29.5 198.542 29.5133 198.382 29.5C198.235 29.4733 198.082 29.4067 197.922 29.3C197.695 29.14 197.409 28.9333 197.062 28.68C196.729 28.4133 196.362 28.12 195.962 27.8C195.482 27.4133 195.149 27.1133 194.962 26.9C194.789 26.6867 194.675 26.4867 194.622 26.3H194.602C194.549 26.5267 194.422 26.76 194.222 27C194.022 27.24 193.682 27.5533 193.202 27.94C192.429 28.5533 191.655 29.1333 190.882 29.68C190.589 29.8933 190.295 29.9467 190.002 29.84C189.709 29.72 189.489 29.5533 189.342 29.34C189.169 29.1 189.082 28.8267 189.082 28.52C189.082 28.2133 189.235 27.9533 189.542 27.74C189.995 27.42 190.422 27.1067 190.822 26.8C191.235 26.4933 191.662 26.16 192.102 25.8C192.529 25.44 192.835 25.0533 193.022 24.64C193.209 24.2267 193.302 23.7133 193.302 23.1V22.52H190.322C190.015 22.52 189.789 22.4133 189.642 22.2C189.495 21.9867 189.422 21.7333 189.422 21.44C189.422 21.1467 189.495 20.8933 189.642 20.68C189.789 20.4667 190.015 20.36 190.322 20.36H198.642C198.949 20.36 199.175 20.4667 199.322 20.68C199.469 20.8933 199.542 21.1467 199.542 21.44C199.542 21.7333 199.469 21.9867 199.322 22.2C199.175 22.4133 198.949 22.52 198.642 22.52H195.862ZM205.402 23.54C205.722 23.54 205.955 23.6467 206.102 23.86C206.249 24.0733 206.322 24.3333 206.322 24.64C206.322 24.9467 206.249 25.2133 206.102 25.44C205.955 25.6533 205.722 25.76 205.402 25.76H203.522V29.2C203.522 29.5733 203.389 29.8467 203.122 30.02C202.869 30.1933 202.575 30.28 202.242 30.28C201.909 30.28 201.609 30.1933 201.342 30.02C201.089 29.8467 200.962 29.5733 200.962 29.2V20.42C200.962 20.0467 201.089 19.7733 201.342 19.6C201.609 19.4267 201.909 19.34 202.242 19.34C202.575 19.34 202.869 19.4267 203.122 19.6C203.389 19.7733 203.522 20.0467 203.522 20.42V23.54H205.402ZM200.962 33.64C200.962 33.3333 200.809 33.18 200.502 33.18H192.262C191.955 33.18 191.729 33.0733 191.582 32.86C191.435 32.6467 191.362 32.3933 191.362 32.1C191.362 31.8067 191.435 31.5533 191.582 31.34C191.729 31.1267 191.955 31.02 192.262 31.02H201.822C202.462 31.02 202.902 31.14 203.142 31.38C203.395 31.62 203.522 32.0533 203.522 32.68V37.06C203.522 37.4333 203.389 37.7067 203.122 37.88C202.869 38.0533 202.575 38.14 202.242 38.14C201.909 38.14 201.609 38.0533 201.342 37.88C201.089 37.7067 200.962 37.4333 200.962 37.06V33.64ZM212.725 24.92C213.405 24.92 214.018 25.02 214.565 25.22C215.125 25.4067 215.592 25.6733 215.965 26.02C216.352 26.3667 216.645 26.7933 216.845 27.3C217.058 27.7933 217.165 28.34 217.165 28.94C217.165 29.54 217.058 30.0933 216.845 30.6C216.645 31.0933 216.352 31.5133 215.965 31.86C215.592 32.2067 215.125 32.48 214.565 32.68C214.018 32.8667 213.405 32.96 212.725 32.96C212.045 32.96 211.425 32.8667 210.865 32.68C210.318 32.48 209.852 32.2067 209.465 31.86C209.092 31.5133 208.798 31.0933 208.585 30.6C208.385 30.0933 208.285 29.54 208.285 28.94C208.285 28.34 208.385 27.7933 208.585 27.3C208.798 26.7933 209.092 26.3667 209.465 26.02C209.852 25.6733 210.318 25.4067 210.865 25.22C211.425 25.02 212.045 24.92 212.725 24.92ZM211.445 21.76V20.38C211.445 20.0067 211.572 19.7333 211.825 19.56C212.092 19.3867 212.392 19.3 212.725 19.3C213.058 19.3 213.352 19.3867 213.605 19.56C213.872 19.7333 214.005 20.0067 214.005 20.38V21.76H217.145C217.452 21.76 217.678 21.8667 217.825 22.08C217.972 22.2933 218.045 22.5467 218.045 22.84C218.045 23.1333 217.972 23.3867 217.825 23.6C217.678 23.8133 217.452 23.92 217.145 23.92H208.065C207.758 23.92 207.532 23.8133 207.385 23.6C207.238 23.3867 207.165 23.1333 207.165 22.84C207.165 22.5467 207.238 22.2933 207.385 22.08C207.532 21.8667 207.758 21.76 208.065 21.76H211.445ZM212.725 30.92C213.365 30.92 213.878 30.7467 214.265 30.4C214.652 30.04 214.845 29.5533 214.845 28.94C214.845 28.3267 214.652 27.8467 214.265 27.5C213.878 27.14 213.365 26.96 212.725 26.96C212.085 26.96 211.572 27.14 211.185 27.5C210.798 27.8467 210.605 28.3267 210.605 28.94C210.605 29.5533 210.798 30.04 211.185 30.4C211.572 30.7467 212.085 30.92 212.725 30.92ZM221.725 25.44H223.605C223.925 25.44 224.158 25.5467 224.305 25.76C224.452 25.9733 224.525 26.2333 224.525 26.54C224.525 26.8467 224.452 27.1133 224.305 27.34C224.158 27.5533 223.925 27.66 223.605 27.66H221.725V35.74C221.725 36.1133 221.592 36.3867 221.325 36.56C221.072 36.7333 220.785 36.82 220.465 36.82C220.132 36.82 219.832 36.7333 219.565 36.56C219.312 36.3867 219.185 36.1133 219.185 35.74V20.42C219.185 20.0467 219.312 19.7733 219.565 19.6C219.832 19.4267 220.132 19.34 220.465 19.34C220.785 19.34 221.072 19.4267 221.325 19.6C221.592 19.7733 221.725 20.0467 221.725 20.42V25.44ZM227.328 22.88C227.021 22.88 226.795 22.7733 226.648 22.56C226.501 22.3467 226.428 22.0933 226.428 21.8C226.428 21.4933 226.501 21.2333 226.648 21.02C226.795 20.8067 227.021 20.7 227.328 20.7H233.348C233.988 20.7 234.428 20.82 234.668 21.06C234.921 21.3 235.048 21.7333 235.048 22.36V24.58C235.048 25.14 235.015 25.6467 234.948 26.1C234.881 26.5533 234.755 26.9867 234.568 27.4C234.395 27.8 234.148 28.1933 233.828 28.58C233.508 28.9667 233.088 29.3733 232.568 29.8C232.048 30.2267 231.415 30.6867 230.668 31.18C229.935 31.6733 229.061 32.2267 228.048 32.84C227.768 33.0133 227.475 33.0467 227.168 32.94C226.875 32.82 226.648 32.64 226.488 32.4C226.328 32.16 226.248 31.88 226.248 31.56C226.248 31.24 226.395 30.9867 226.688 30.8C227.595 30.2533 228.368 29.7733 229.008 29.36C229.661 28.9333 230.201 28.5533 230.628 28.22C231.068 27.8867 231.408 27.58 231.648 27.3C231.901 27.02 232.088 26.74 232.208 26.46C232.341 26.1667 232.421 25.8667 232.448 25.56C232.488 25.2533 232.508 24.9 232.508 24.5V23.34C232.508 23.0333 232.355 22.88 232.048 22.88H227.328ZM240.788 35.74C240.788 36.1133 240.655 36.3867 240.388 36.56C240.135 36.7333 239.835 36.82 239.488 36.82C239.155 36.82 238.855 36.7333 238.588 36.56C238.335 36.3867 238.208 36.1133 238.208 35.74V20.42C238.208 20.0467 238.335 19.7733 238.588 19.6C238.855 19.4267 239.155 19.34 239.488 19.34C239.835 19.34 240.135 19.4267 240.388 19.6C240.655 19.7733 240.788 20.0467 240.788 20.42V35.74Z" fill="black"/>
</svg>
