<svg width="160" height="50" viewBox="0 0 160 50" fill="none" xmlns="http://www.w3.org/2000/svg">
<rect width="160" height="50" rx="25" fill="#00A3FF"/>
<path d="M67.42 22.34C65.8333 22.34 64.64 22 63.84 21.32C63.04 20.6267 62.64 19.7267 62.64 18.62C62.64 17.5133 63.04 16.62 63.84 15.94C64.64 15.2467 65.8333 14.9 67.42 14.9C69.0067 14.9 70.2 15.2467 71 15.94C71.8 16.62 72.2 17.5133 72.2 18.62C72.2 19.7267 71.8 20.6267 71 21.32C70.2 22 69.0067 22.34 67.42 22.34ZM67.42 20.26C68.2467 20.26 68.8467 20.1133 69.22 19.82C69.6067 19.5267 69.8 19.1267 69.8 18.62C69.8 18.1133 69.6067 17.7133 69.22 17.42C68.8467 17.1267 68.2467 16.98 67.42 16.98C66.5933 16.98 65.9867 17.1267 65.6 17.42C65.2267 17.7133 65.04 18.1133 65.04 18.62C65.04 19.1267 65.2267 19.5267 65.6 19.82C65.9867 20.1133 66.5933 20.26 67.42 20.26ZM76.44 19.86H78.06C78.38 19.86 78.6133 19.9667 78.76 20.18C78.9067 20.3933 78.98 20.6533 78.98 20.96C78.98 21.2667 78.9067 21.5333 78.76 21.76C78.6133 21.9733 78.38 22.08 78.06 22.08H76.44V27.32C76.44 27.68 76.3133 27.9467 76.06 28.12C75.8067 28.2933 75.5133 28.38 75.18 28.38C74.8467 28.38 74.5533 28.2933 74.3 28.12C74.0467 27.9467 73.92 27.68 73.92 27.32V15.4C73.92 15.04 74.0467 14.7733 74.3 14.6C74.5533 14.4267 74.8467 14.34 75.18 14.34C75.5133 14.34 75.8067 14.4267 76.06 14.6C76.3133 14.7733 76.44 15.04 76.44 15.4V19.86ZM72.36 25.8C71.72 25.8533 71.0133 25.9 70.24 25.94C69.4667 25.98 68.6533 26.02 67.8 26.06C66.96 26.0867 66.0867 26.1067 65.18 26.12C64.2867 26.1333 63.3867 26.14 62.48 26.14C62.1733 26.14 61.9467 26.0333 61.8 25.82C61.6533 25.6067 61.58 25.3533 61.58 25.06C61.58 24.78 61.6533 24.5333 61.8 24.32C61.9467 24.1067 62.1733 24 62.48 24C63.0933 24 63.7067 24 64.32 24C64.9333 24 65.5533 23.9933 66.18 23.98V20.86H68.7V23.92C69.2867 23.8933 69.8667 23.8667 70.44 23.84C71.0267 23.8 71.6067 23.7533 72.18 23.7C72.4867 23.6733 72.7133 23.7533 72.86 23.94C73.02 24.1267 73.1133 24.3667 73.14 24.66C73.1667 24.9267 73.12 25.18 73 25.42C72.88 25.6467 72.6667 25.7733 72.36 25.8ZM75.98 30.62C76.2867 30.62 76.5133 30.7267 76.66 30.94C76.8067 31.1533 76.88 31.4067 76.88 31.7C76.88 31.9933 76.8067 32.2467 76.66 32.46C76.5133 32.6733 76.2867 32.78 75.98 32.78H65.88C65.24 32.78 64.7933 32.66 64.54 32.42C64.3 32.18 64.18 31.7467 64.18 31.12V28.06C64.18 27.6867 64.3067 27.4133 64.56 27.24C64.8267 27.0667 65.1333 26.98 65.48 26.98C65.8133 26.98 66.1067 27.0667 66.36 27.24C66.6267 27.4133 66.76 27.6867 66.76 28.06V30.16C66.76 30.4667 66.9133 30.62 67.22 30.62H75.98ZM92.8031 15.38C93.4431 15.38 93.8831 15.5 94.1231 15.74C94.3765 15.98 94.5031 16.4133 94.5031 17.04V19.68C94.5031 20.3067 94.3765 20.74 94.1231 20.98C93.8831 21.22 93.4431 21.34 92.8031 21.34H85.0431C84.7365 21.34 84.5831 21.4933 84.5831 21.8V22.62C84.5831 22.9267 84.7365 23.08 85.0431 23.08H94.0031C94.3098 23.08 94.5365 23.1867 94.6831 23.4C94.8298 23.6133 94.9031 23.8667 94.9031 24.16C94.9031 24.4533 94.8298 24.7067 94.6831 24.92C94.5365 25.1333 94.3098 25.24 94.0031 25.24H83.7631C83.1231 25.24 82.6765 25.12 82.4231 24.88C82.1831 24.64 82.0631 24.2067 82.0631 23.58V20.92C82.0631 20.2933 82.1831 19.86 82.4231 19.62C82.6765 19.38 83.1231 19.26 83.7631 19.26H91.5231C91.8298 19.26 91.9831 19.1067 91.9831 18.8V18C91.9831 17.6933 91.8298 17.54 91.5231 17.54H82.9231C82.6165 17.54 82.3898 17.4333 82.2431 17.22C82.0965 17.0067 82.0231 16.7533 82.0231 16.46C82.0231 16.1667 82.0965 15.9133 82.2431 15.7C82.3898 15.4867 82.6165 15.38 82.9231 15.38H92.8031ZM80.7431 30.18C80.4365 30.18 80.2098 30.0733 80.0631 29.86C79.9165 29.6467 79.8431 29.3933 79.8431 29.1C79.8431 28.82 79.9165 28.5733 80.0631 28.36C80.2098 28.1467 80.4365 28.04 80.7431 28.04H84.6031V24.22H87.0231V28.04H89.6631V24.22H92.0831V28.04H95.8631C96.1698 28.04 96.3965 28.1467 96.5431 28.36C96.6898 28.5733 96.7631 28.82 96.7631 29.1C96.7631 29.3933 96.6898 29.6467 96.5431 29.86C96.3965 30.0733 96.1698 30.18 95.8631 30.18H80.7431Z" fill="white"/>
</svg>
