<svg width="160" height="50" viewBox="0 0 160 50" fill="none" xmlns="http://www.w3.org/2000/svg">
<rect width="160" height="50" rx="25" fill="#00A3FF"/>
<path d="M30.7 25.42C30.7 26.0467 30.5733 26.48 30.32 26.72C30.08 26.96 29.64 27.08 29 27.08H24.7C24.06 27.08 23.6133 26.96 23.36 26.72C23.12 26.48 23 26.0467 23 25.42V17.46C23 16.8333 23.12 16.4 23.36 16.16C23.6133 15.92 24.06 15.8 24.7 15.8H29C29.64 15.8 30.08 15.92 30.32 16.16C30.5733 16.4 30.7 16.8333 30.7 17.46V25.42ZM28.34 18.42C28.34 18.1133 28.1867 17.96 27.88 17.96H25.82C25.5133 17.96 25.36 18.1133 25.36 18.42V24.46C25.36 24.7667 25.5133 24.92 25.82 24.92H27.88C28.1867 24.92 28.34 24.7667 28.34 24.46V18.42ZM29.56 20.36H32.54V15.54C32.54 15.1933 32.66 14.94 32.9 14.78C33.14 14.62 33.4133 14.54 33.72 14.54C34.0133 14.54 34.28 14.62 34.52 14.78C34.76 14.94 34.88 15.1933 34.88 15.54V29.98C34.88 30.3267 34.76 30.58 34.52 30.74C34.28 30.9 34.0133 30.98 33.72 30.98C33.4133 30.98 33.14 30.9 32.9 30.74C32.66 30.58 32.54 30.3267 32.54 29.98V22.52H29.56V20.36ZM36.18 15.34C36.18 14.9933 36.3 14.74 36.54 14.58C36.78 14.42 37.0533 14.34 37.36 14.34C37.6667 14.34 37.94 14.42 38.18 14.58C38.42 14.74 38.54 14.9933 38.54 15.34V30.82C38.54 31.1667 38.42 31.42 38.18 31.58C37.94 31.74 37.6667 31.82 37.36 31.82C37.0533 31.82 36.78 31.74 36.54 31.58C36.3 31.42 36.18 31.1667 36.18 30.82V15.34ZM48.0431 19.16C48.0431 19.56 48.0698 19.9267 48.1231 20.26C48.1898 20.5933 48.2831 20.9133 48.4031 21.22C48.5231 21.5267 48.6765 21.8267 48.8631 22.12C49.0631 22.4 49.3031 22.6933 49.5831 23C49.9431 23.3867 50.3031 23.7667 50.6631 24.14C51.0365 24.5133 51.3765 24.8333 51.6831 25.1C51.9365 25.3267 52.0365 25.6 51.9831 25.92C51.9298 26.2267 51.8031 26.4867 51.6031 26.7C51.5098 26.7933 51.3965 26.8733 51.2631 26.94C51.1298 27.0067 50.9898 27.0533 50.8431 27.08C50.7098 27.0933 50.5698 27.08 50.4231 27.04C50.2898 27 50.1631 26.9267 50.0431 26.82C49.7765 26.58 49.4831 26.3067 49.1631 26C48.8565 25.68 48.5431 25.3467 48.2231 25C47.6898 24.44 47.3231 24.02 47.1231 23.74C46.9231 23.4467 46.8031 23.2 46.7631 23H46.7431C46.7165 23.12 46.6698 23.2467 46.6031 23.38C46.5498 23.5 46.4698 23.64 46.3631 23.8C46.2565 23.9467 46.1098 24.1267 45.9231 24.34C45.7498 24.54 45.5298 24.78 45.2631 25.06C44.9431 25.4067 44.6098 25.7467 44.2631 26.08C43.9298 26.4133 43.5631 26.7667 43.1631 27.14C42.9098 27.3667 42.6231 27.44 42.3031 27.36C41.9965 27.2667 41.7498 27.12 41.5631 26.92C41.3631 26.6933 41.2565 26.4267 41.2431 26.12C41.2298 25.8133 41.3431 25.5467 41.5831 25.32C42.4098 24.56 43.1831 23.7867 43.9031 23C44.1831 22.6933 44.4165 22.4 44.6031 22.12C44.8031 21.8267 44.9631 21.5267 45.0831 21.22C45.2031 20.9133 45.2898 20.5933 45.3431 20.26C45.4098 19.9267 45.4431 19.56 45.4431 19.16V16.36C45.4431 15.9733 45.5698 15.6933 45.8231 15.52C46.0898 15.3467 46.3965 15.26 46.7431 15.26C47.0898 15.26 47.3898 15.3467 47.6431 15.52C47.9098 15.6933 48.0431 15.9733 48.0431 16.36V19.16ZM56.1631 30.74C56.1631 31.1133 56.0298 31.3867 55.7631 31.56C55.5098 31.7333 55.2098 31.82 54.8631 31.82C54.5298 31.82 54.2298 31.7333 53.9631 31.56C53.7098 31.3867 53.5831 31.1133 53.5831 30.74V15.42C53.5831 15.0467 53.7098 14.7733 53.9631 14.6C54.2298 14.4267 54.5298 14.34 54.8631 14.34C55.2098 14.34 55.5098 14.4267 55.7631 14.6C56.0298 14.7733 56.1631 15.0467 56.1631 15.42V30.74ZM66.2863 17.88V19.4C66.2863 19.8267 66.3129 20.2133 66.3663 20.56C66.4196 20.9067 66.4996 21.2267 66.6063 21.52C66.7263 21.8133 66.8796 22.1 67.0663 22.38C67.2529 22.6467 67.4863 22.92 67.7663 23.2C68.1529 23.5867 68.5263 23.9533 68.8863 24.3C69.2463 24.6467 69.5796 24.9533 69.8863 25.22C70.1396 25.4467 70.2396 25.7133 70.1863 26.02C70.1463 26.3267 70.0263 26.5867 69.8263 26.8C69.6263 27 69.3796 27.1333 69.0863 27.2C68.7929 27.2533 68.5263 27.1733 68.2863 26.96C68.0196 26.7333 67.7263 26.4667 67.4063 26.16C67.0863 25.84 66.7463 25.5 66.3863 25.14C65.8663 24.62 65.5129 24.2267 65.3263 23.96C65.1529 23.68 65.0463 23.4467 65.0063 23.26H64.9863C64.9329 23.4867 64.8129 23.74 64.6263 24.02C64.4529 24.2867 64.1063 24.68 63.5863 25.2C63.2263 25.56 62.8663 25.9133 62.5063 26.26C62.1463 26.6067 61.7729 26.9467 61.3863 27.28C61.2529 27.3867 61.1129 27.4533 60.9663 27.48C60.8196 27.5067 60.6729 27.5067 60.5263 27.48C60.3929 27.44 60.2596 27.3867 60.1263 27.32C60.0063 27.24 59.8996 27.1467 59.8063 27.04C59.6063 26.8133 59.4996 26.5467 59.4863 26.24C59.4729 25.9333 59.5929 25.6667 59.8463 25.44C60.6863 24.7067 61.4729 23.96 62.2063 23.2C62.4863 22.92 62.7196 22.6467 62.9063 22.38C63.0929 22.1 63.2396 21.8133 63.3463 21.52C63.4663 21.2267 63.5529 20.9067 63.6063 20.56C63.6596 20.2133 63.6862 19.8267 63.6862 19.4V17.88H60.7063C60.3996 17.88 60.1729 17.7733 60.0263 17.56C59.8796 17.3467 59.8063 17.0933 59.8063 16.8C59.8063 16.4933 59.8796 16.2333 60.0263 16.02C60.1729 15.8067 60.3996 15.7 60.7063 15.7H69.1063C69.4129 15.7 69.6396 15.8067 69.7863 16.02C69.9329 16.2333 70.0063 16.4933 70.0063 16.8C70.0063 17.0933 69.9329 17.3467 69.7863 17.56C69.6396 17.7733 69.4129 17.88 69.1063 17.88H66.2863ZM74.3663 30.74C74.3663 31.1133 74.2329 31.3867 73.9663 31.56C73.7129 31.7333 73.4129 31.82 73.0663 31.82C72.7329 31.82 72.4329 31.7333 72.1663 31.56C71.9129 31.3867 71.7863 31.1133 71.7863 30.74V15.42C71.7863 15.0467 71.9129 14.7733 72.1663 14.6C72.4329 14.4267 72.7329 14.34 73.0663 14.34C73.4129 14.34 73.7129 14.4267 73.9663 14.6C74.2329 14.7733 74.3663 15.0467 74.3663 15.42V30.74ZM84.6294 23.6C83.9894 23.6 83.5427 23.48 83.2894 23.24C83.0494 23 82.9294 22.5667 82.9294 21.94V16.24C82.9294 15.8667 83.056 15.5933 83.3094 15.42C83.576 15.2467 83.876 15.16 84.2094 15.16C84.556 15.16 84.856 15.2467 85.1094 15.42C85.376 15.5933 85.5094 15.8667 85.5094 16.24V20.96C85.5094 21.2667 85.6627 21.42 85.9694 21.42C87.076 21.42 88.1427 21.3933 89.1694 21.34C90.196 21.2733 91.196 21.1733 92.1694 21.04C92.476 21 92.716 21.0733 92.8894 21.26C93.076 21.4467 93.1827 21.6867 93.2094 21.98C93.236 22.2867 93.196 22.56 93.0894 22.8C92.9827 23.0267 92.7827 23.16 92.4894 23.2C92.076 23.2533 91.616 23.3067 91.1094 23.36C90.616 23.4 90.0494 23.44 89.4094 23.48C88.7827 23.52 88.0694 23.5533 87.2694 23.58C86.4827 23.5933 85.6027 23.6 84.6294 23.6ZM98.5894 18.44C98.9094 18.44 99.1427 18.5467 99.2894 18.76C99.436 18.9733 99.5094 19.2333 99.5094 19.54C99.5094 19.8467 99.436 20.1133 99.2894 20.34C99.1427 20.5533 98.9094 20.66 98.5894 20.66H96.7094V23.8C96.7094 24.1733 96.576 24.4467 96.3094 24.62C96.056 24.7933 95.7627 24.88 95.4294 24.88C95.096 24.88 94.796 24.7933 94.5294 24.62C94.276 24.4467 94.1494 24.1733 94.1494 23.8V15.42C94.1494 15.0467 94.276 14.7733 94.5294 14.6C94.796 14.4267 95.096 14.34 95.4294 14.34C95.7627 14.34 96.056 14.4267 96.3094 14.6C96.576 14.7733 96.7094 15.0467 96.7094 15.42V18.44H98.5894ZM86.5694 32.88C85.9294 32.88 85.4827 32.76 85.2294 32.52C84.9894 32.28 84.8694 31.8467 84.8694 31.22V27.28C84.8694 26.6533 84.9894 26.22 85.2294 25.98C85.4827 25.74 85.9294 25.62 86.5694 25.62H95.0094C95.6494 25.62 96.0894 25.74 96.3294 25.98C96.5827 26.22 96.7094 26.6533 96.7094 27.28V31.22C96.7094 31.8467 96.5827 32.28 96.3294 32.52C96.0894 32.76 95.6494 32.88 95.0094 32.88H86.5694ZM93.7094 30.76C94.016 30.76 94.1694 30.6067 94.1694 30.3V28.2C94.1694 27.8933 94.016 27.74 93.7094 27.74H87.8694C87.5627 27.74 87.4094 27.8933 87.4094 28.2V30.3C87.4094 30.6067 87.5627 30.76 87.8694 30.76H93.7094ZM102.312 17.88C102.006 17.88 101.779 17.7733 101.633 17.56C101.486 17.3467 101.413 17.0933 101.413 16.8C101.413 16.4933 101.486 16.2333 101.633 16.02C101.779 15.8067 102.006 15.7 102.312 15.7H108.333C108.973 15.7 109.413 15.82 109.653 16.06C109.906 16.3 110.033 16.7333 110.033 17.36V19.58C110.033 20.14 109.999 20.6467 109.933 21.1C109.866 21.5533 109.739 21.9867 109.553 22.4C109.379 22.8 109.133 23.1933 108.813 23.58C108.493 23.9667 108.073 24.3733 107.553 24.8C107.033 25.2267 106.399 25.6867 105.653 26.18C104.919 26.6733 104.046 27.2267 103.033 27.84C102.753 28.0133 102.459 28.0467 102.153 27.94C101.859 27.82 101.633 27.64 101.473 27.4C101.313 27.16 101.233 26.88 101.233 26.56C101.233 26.24 101.379 25.9867 101.673 25.8C102.579 25.2533 103.353 24.7733 103.993 24.36C104.646 23.9333 105.186 23.5533 105.613 23.22C106.053 22.8867 106.393 22.58 106.633 22.3C106.886 22.02 107.073 21.74 107.193 21.46C107.326 21.1667 107.406 20.8667 107.433 20.56C107.473 20.2533 107.493 19.9 107.493 19.5V18.34C107.493 18.0333 107.339 17.88 107.033 17.88H102.312ZM115.773 30.74C115.773 31.1133 115.639 31.3867 115.373 31.56C115.119 31.7333 114.819 31.82 114.473 31.82C114.139 31.82 113.839 31.7333 113.573 31.56C113.319 31.3867 113.193 31.1133 113.193 30.74V15.42C113.193 15.0467 113.319 14.7733 113.573 14.6C113.839 14.4267 114.139 14.34 114.473 14.34C114.819 14.34 115.119 14.4267 115.373 14.6C115.639 14.7733 115.773 15.0467 115.773 15.42V30.74ZM120.516 17.88C120.209 17.88 119.982 17.7733 119.836 17.56C119.689 17.3467 119.616 17.0933 119.616 16.8C119.616 16.4933 119.689 16.2333 119.836 16.02C119.982 15.8067 120.209 15.7 120.516 15.7H126.536C127.176 15.7 127.616 15.82 127.856 16.06C128.109 16.3 128.236 16.7333 128.236 17.36V19.58C128.236 20.14 128.202 20.6467 128.136 21.1C128.069 21.5533 127.942 21.9867 127.756 22.4C127.582 22.8 127.336 23.1933 127.016 23.58C126.696 23.9667 126.276 24.3733 125.756 24.8C125.236 25.2267 124.602 25.6867 123.856 26.18C123.122 26.6733 122.249 27.2267 121.236 27.84C120.956 28.0133 120.662 28.0467 120.356 27.94C120.062 27.82 119.836 27.64 119.676 27.4C119.516 27.16 119.436 26.88 119.436 26.56C119.436 26.24 119.582 25.9867 119.876 25.8C120.782 25.2533 121.556 24.7733 122.196 24.36C122.849 23.9333 123.389 23.5533 123.816 23.22C124.256 22.8867 124.596 22.58 124.836 22.3C125.089 22.02 125.276 21.74 125.396 21.46C125.529 21.1667 125.609 20.8667 125.636 20.56C125.676 20.2533 125.696 19.9 125.696 19.5V18.34C125.696 18.0333 125.542 17.88 125.236 17.88H120.516ZM133.976 30.74C133.976 31.1133 133.842 31.3867 133.576 31.56C133.322 31.7333 133.022 31.82 132.676 31.82C132.342 31.82 132.042 31.7333 131.776 31.56C131.522 31.3867 131.396 31.1133 131.396 30.74V15.42C131.396 15.0467 131.522 14.7733 131.776 14.6C132.042 14.4267 132.342 14.34 132.676 14.34C133.022 14.34 133.322 14.4267 133.576 14.6C133.842 14.7733 133.976 15.0467 133.976 15.42V30.74Z" fill="white"/>
</svg>
