<svg width="300" height="50" viewBox="0 0 300 50" fill="none" xmlns="http://www.w3.org/2000/svg">
<rect width="300" height="50" rx="25" fill="#00A3FF"/>
<path d="M56.02 27.16C55.38 27.16 54.9333 27.04 54.68 26.8C54.44 26.56 54.32 26.1267 54.32 25.5V16.6C54.32 16.2267 54.4467 15.9533 54.7 15.78C54.9667 15.6067 55.2667 15.52 55.6 15.52C55.9467 15.52 56.2467 15.6067 56.5 15.78C56.7667 15.9533 56.9 16.2267 56.9 16.6V24.52C56.9 24.8267 57.0533 24.98 57.36 24.98C58.4667 24.98 59.5333 24.9533 60.56 24.9C61.5867 24.8333 62.5867 24.7333 63.56 24.6C63.8667 24.56 64.1067 24.6333 64.28 24.82C64.4667 25.0067 64.5733 25.2467 64.6 25.54C64.6267 25.8467 64.5867 26.12 64.48 26.36C64.3733 26.5867 64.1733 26.72 63.88 26.76C63.4667 26.8133 63.0067 26.8667 62.5 26.92C62.0067 26.96 61.44 27 60.8 27.04C60.1733 27.08 59.46 27.1133 58.66 27.14C57.8733 27.1533 56.9933 27.16 56.02 27.16ZM69.98 20.24C70.3 20.24 70.5333 20.3467 70.68 20.56C70.8267 20.7733 70.9 21.0333 70.9 21.34C70.9 21.6467 70.8267 21.9133 70.68 22.14C70.5333 22.3533 70.3 22.46 69.98 22.46H68.1V30.74C68.1 31.1133 67.9667 31.3867 67.7 31.56C67.4467 31.7333 67.1533 31.82 66.82 31.82C66.4867 31.82 66.1867 31.7333 65.92 31.56C65.6667 31.3867 65.54 31.1133 65.54 30.74V15.42C65.54 15.0467 65.6667 14.7733 65.92 14.6C66.1867 14.4267 66.4867 14.34 66.82 14.34C67.1533 14.34 67.4467 14.4267 67.7 14.6C67.9667 14.7733 68.1 15.0467 68.1 15.42V20.24H69.98ZM78.0431 24.34C77.2165 24.34 76.4898 24.2333 75.8631 24.02C75.2498 23.7933 74.7365 23.48 74.3231 23.08C73.9098 22.68 73.5965 22.2067 73.3831 21.66C73.1698 21.1133 73.0631 20.5133 73.0631 19.86C73.0631 19.2067 73.1698 18.6067 73.3831 18.06C73.5965 17.5133 73.9098 17.04 74.3231 16.64C74.7365 16.24 75.2498 15.9333 75.8631 15.72C76.4898 15.4933 77.2165 15.38 78.0431 15.38C78.8565 15.38 79.5765 15.4933 80.2031 15.72C80.8298 15.9333 81.3498 16.24 81.7631 16.64C82.1765 17.04 82.4898 17.5133 82.7031 18.06C82.9165 18.6067 83.0231 19.2067 83.0231 19.86C83.0231 20.5133 82.9165 21.1133 82.7031 21.66C82.4898 22.2067 82.1765 22.68 81.7631 23.08C81.3498 23.48 80.8298 23.7933 80.2031 24.02C79.5765 24.2333 78.8565 24.34 78.0431 24.34ZM78.0431 17.5C77.1631 17.5 76.5165 17.72 76.1031 18.16C75.6898 18.6 75.4831 19.1667 75.4831 19.86C75.4831 20.5533 75.6898 21.12 76.1031 21.56C76.5165 22 77.1631 22.22 78.0431 22.22C78.9231 22.22 79.5698 22 79.9831 21.56C80.3965 21.12 80.6031 20.5533 80.6031 19.86C80.6031 19.1667 80.3965 18.6 79.9831 18.16C79.5698 17.72 78.9231 17.5 78.0431 17.5ZM83.4231 28.36C82.7565 28.4267 82.0165 28.4867 81.2031 28.54C80.3898 28.58 79.5298 28.6133 78.6231 28.64C77.7298 28.6667 76.8031 28.6933 75.8431 28.72C74.8831 28.7333 73.9231 28.74 72.9631 28.74C72.6565 28.74 72.4298 28.6333 72.2831 28.42C72.1365 28.2067 72.0631 27.9467 72.0631 27.64C72.0631 27.3467 72.1365 27.0933 72.2831 26.88C72.4298 26.6667 72.6565 26.56 72.9631 26.56C74.6698 26.56 76.3831 26.54 78.1031 26.5C79.8365 26.46 81.5498 26.3667 83.2431 26.22C83.5498 26.1933 83.7765 26.2733 83.9231 26.46C84.0831 26.6467 84.1765 26.8867 84.2031 27.18C84.2298 27.4733 84.1831 27.74 84.0631 27.98C83.9431 28.2067 83.7298 28.3333 83.4231 28.36ZM84.9831 15.42C84.9831 15.0467 85.1098 14.7733 85.3631 14.6C85.6298 14.4267 85.9298 14.34 86.2631 14.34C86.5831 14.34 86.8698 14.4267 87.1231 14.6C87.3898 14.7733 87.5231 15.0467 87.5231 15.42V30.74C87.5231 31.1133 87.3898 31.3867 87.1231 31.56C86.8698 31.7333 86.5831 31.82 86.2631 31.82C85.9298 31.82 85.6298 31.7333 85.3631 31.56C85.1098 31.3867 84.9831 31.1133 84.9831 30.74V15.42ZM95.6463 21.44C95.6463 19.4533 96.0463 17.9467 96.8463 16.92C97.6463 15.88 98.8529 15.36 100.466 15.36C102.08 15.36 103.286 15.88 104.086 16.92C104.886 17.9467 105.286 19.4533 105.286 21.44C105.286 23.4267 104.886 24.94 104.086 25.98C103.286 27.0067 102.08 27.52 100.466 27.52C98.8529 27.52 97.6463 27.0067 96.8463 25.98C96.0463 24.94 95.6463 23.4267 95.6463 21.44ZM102.826 21.44C102.826 20.1733 102.653 19.2133 102.306 18.56C101.96 17.9067 101.346 17.58 100.466 17.58C99.5863 17.58 98.9729 17.9067 98.6263 18.56C98.2796 19.2133 98.1063 20.1733 98.1063 21.44C98.1063 22.7067 98.2796 23.6667 98.6263 24.32C98.9729 24.9733 99.5863 25.3 100.466 25.3C101.346 25.3 101.96 24.9733 102.306 24.32C102.653 23.6667 102.826 22.7067 102.826 21.44ZM110.366 30.74C110.366 31.1133 110.233 31.3867 109.966 31.56C109.713 31.7333 109.413 31.82 109.066 31.82C108.733 31.82 108.433 31.7333 108.166 31.56C107.913 31.3867 107.786 31.1133 107.786 30.74V15.42C107.786 15.0467 107.913 14.7733 108.166 14.6C108.433 14.4267 108.733 14.34 109.066 14.34C109.413 14.34 109.713 14.4267 109.966 14.6C110.233 14.7733 110.366 15.0467 110.366 15.42V30.74ZM113.449 21.44C113.449 19.4533 113.849 17.9467 114.649 16.92C115.449 15.8933 116.649 15.38 118.249 15.38C119.849 15.38 121.049 15.8933 121.849 16.92C122.649 17.9467 123.049 19.4533 123.049 21.44C123.049 23.4267 122.649 24.9333 121.849 25.96C121.049 26.9867 119.849 27.5 118.249 27.5C116.649 27.5 115.449 26.9867 114.649 25.96C113.849 24.9333 113.449 23.4267 113.449 21.44ZM120.589 21.44C120.589 20.1733 120.416 19.22 120.069 18.58C119.723 17.9267 119.116 17.6 118.249 17.6C117.383 17.6 116.776 17.9267 116.429 18.58C116.083 19.22 115.909 20.1733 115.909 21.44C115.909 22.7067 116.083 23.6667 116.429 24.32C116.776 24.96 117.383 25.28 118.249 25.28C119.116 25.28 119.723 24.96 120.069 24.32C120.416 23.6667 120.589 22.7067 120.589 21.44ZM127.709 17.98H129.409C129.729 17.98 129.963 18.0867 130.109 18.3C130.256 18.5133 130.329 18.7733 130.329 19.08C130.329 19.3867 130.256 19.6467 130.109 19.86C129.963 20.0733 129.729 20.18 129.409 20.18H127.709V22.5H129.409C129.729 22.5 129.963 22.6067 130.109 22.82C130.256 23.0333 130.329 23.2933 130.329 23.6C130.329 23.9067 130.256 24.1667 130.109 24.38C129.963 24.5933 129.729 24.7 129.409 24.7H127.709V30.74C127.709 31.1133 127.576 31.3867 127.309 31.56C127.056 31.7333 126.763 31.82 126.429 31.82C126.096 31.82 125.796 31.7333 125.529 31.56C125.276 31.3867 125.149 31.1133 125.149 30.74V15.42C125.149 15.0467 125.276 14.7733 125.529 14.6C125.796 14.4267 126.096 14.34 126.429 14.34C126.763 14.34 127.056 14.4267 127.309 14.6C127.576 14.7733 127.709 15.0467 127.709 15.42V17.98ZM133.312 17.88C133.006 17.88 132.779 17.7733 132.633 17.56C132.486 17.3467 132.413 17.0933 132.413 16.8C132.413 16.4933 132.486 16.2333 132.633 16.02C132.779 15.8067 133.006 15.7 133.312 15.7H139.333C139.973 15.7 140.413 15.82 140.653 16.06C140.906 16.3 141.033 16.7333 141.033 17.36V19.58C141.033 20.14 140.999 20.6467 140.933 21.1C140.866 21.5533 140.739 21.9867 140.553 22.4C140.379 22.8 140.133 23.1933 139.813 23.58C139.493 23.9667 139.073 24.3733 138.553 24.8C138.033 25.2267 137.399 25.6867 136.653 26.18C135.919 26.6733 135.046 27.2267 134.033 27.84C133.753 28.0133 133.459 28.0467 133.153 27.94C132.859 27.82 132.633 27.64 132.473 27.4C132.313 27.16 132.233 26.88 132.233 26.56C132.233 26.24 132.379 25.9867 132.673 25.8C133.579 25.2533 134.353 24.7733 134.993 24.36C135.646 23.9333 136.186 23.5533 136.613 23.22C137.053 22.8867 137.393 22.58 137.633 22.3C137.886 22.02 138.073 21.74 138.193 21.46C138.326 21.1667 138.406 20.8667 138.433 20.56C138.473 20.2533 138.493 19.9 138.493 19.5V18.34C138.493 18.0333 138.339 17.88 138.033 17.88H133.312ZM146.773 30.74C146.773 31.1133 146.639 31.3867 146.373 31.56C146.119 31.7333 145.819 31.82 145.473 31.82C145.139 31.82 144.839 31.7333 144.573 31.56C144.319 31.3867 144.193 31.1133 144.193 30.74V15.42C144.193 15.0467 144.319 14.7733 144.573 14.6C144.839 14.4267 145.139 14.34 145.473 14.34C145.819 14.34 146.119 14.4267 146.373 14.6C146.639 14.7733 146.773 15.0467 146.773 15.42V30.74ZM159.416 16.22C159.416 16.7667 159.582 17.2067 159.916 17.54C160.249 17.86 160.736 18.16 161.376 18.44C161.976 18.7067 162.529 18.9467 163.036 19.16C163.556 19.36 164.102 19.5667 164.676 19.78C164.916 19.8733 165.062 20.0667 165.116 20.36C165.182 20.64 165.162 20.9133 165.056 21.18C165.002 21.3133 164.929 21.4333 164.836 21.54C164.742 21.6333 164.636 21.7133 164.516 21.78C164.396 21.8467 164.262 21.8867 164.116 21.9C163.982 21.9133 163.849 21.8933 163.716 21.84C163.276 21.68 162.789 21.4933 162.256 21.28C161.722 21.0667 161.222 20.86 160.756 20.66C159.809 20.26 159.149 19.9133 158.776 19.62C158.402 19.3267 158.189 19.06 158.136 18.82H158.116C158.049 19.1 157.829 19.3867 157.456 19.68C157.082 19.9733 156.422 20.32 155.476 20.72C155.009 20.92 154.522 21.12 154.016 21.32C153.522 21.52 153.042 21.7067 152.576 21.88C152.256 22 151.969 21.9867 151.716 21.84C151.462 21.6933 151.282 21.4867 151.176 21.22C151.069 20.9667 151.036 20.6933 151.076 20.4C151.129 20.0933 151.289 19.8867 151.556 19.78C152.129 19.5667 152.669 19.36 153.176 19.16C153.696 18.9467 154.256 18.7067 154.856 18.44C155.496 18.16 155.982 17.86 156.316 17.54C156.649 17.2067 156.816 16.7667 156.816 16.22V15.7C156.816 15.3133 156.942 15.0333 157.196 14.86C157.462 14.6867 157.769 14.6 158.116 14.6C158.462 14.6 158.762 14.6867 159.016 14.86C159.282 15.0333 159.416 15.3133 159.416 15.7V16.22ZM165.696 22.74C166.002 22.74 166.222 22.8467 166.356 23.06C166.502 23.26 166.576 23.5067 166.576 23.8C166.576 24.0933 166.502 24.3467 166.356 24.56C166.222 24.76 166.002 24.86 165.696 24.86H159.376V27.5H156.856V24.86H150.536C150.229 24.86 150.002 24.76 149.856 24.56C149.722 24.3467 149.656 24.0933 149.656 23.8C149.656 23.5067 149.722 23.26 149.856 23.06C150.002 22.8467 150.229 22.74 150.536 22.74H165.696ZM156.356 30.88H159.876V28.42H156.356V30.88ZM152.176 32.92C151.896 32.92 151.682 32.8133 151.536 32.6C151.402 32.4 151.336 32.1667 151.336 31.9C151.336 31.6333 151.402 31.3933 151.536 31.18C151.682 30.98 151.896 30.88 152.176 30.88H153.956V28.42H152.256C151.976 28.42 151.762 28.32 151.616 28.12C151.482 27.9067 151.416 27.6667 151.416 27.4C151.416 27.1333 151.482 26.9 151.616 26.7C151.762 26.4867 151.976 26.38 152.256 26.38H163.976C164.256 26.38 164.462 26.4867 164.596 26.7C164.742 26.9 164.816 27.1333 164.816 27.4C164.816 27.6667 164.742 27.9067 164.596 28.12C164.462 28.32 164.256 28.42 163.976 28.42H162.276V30.88H164.056C164.336 30.88 164.542 30.98 164.676 31.18C164.822 31.3933 164.896 31.6333 164.896 31.9C164.896 32.1667 164.822 32.4 164.676 32.6C164.542 32.8133 164.336 32.92 164.056 32.92H152.176ZM180.059 19.16C180.059 19.56 180.085 19.9267 180.139 20.26C180.205 20.5933 180.299 20.9133 180.419 21.22C180.539 21.5267 180.692 21.8267 180.879 22.12C181.079 22.4 181.319 22.6933 181.599 23C181.959 23.3867 182.319 23.7667 182.679 24.14C183.052 24.5133 183.392 24.8333 183.699 25.1C183.952 25.3267 184.052 25.6 183.999 25.92C183.945 26.2267 183.819 26.4867 183.619 26.7C183.525 26.7933 183.412 26.8733 183.279 26.94C183.145 27.0067 183.005 27.0533 182.859 27.08C182.725 27.0933 182.585 27.08 182.439 27.04C182.305 27 182.179 26.9267 182.059 26.82C181.792 26.58 181.499 26.3067 181.179 26C180.872 25.68 180.559 25.3467 180.239 25C179.705 24.44 179.339 24.02 179.139 23.74C178.939 23.4467 178.819 23.2 178.779 23H178.759C178.732 23.12 178.685 23.2467 178.619 23.38C178.565 23.5 178.485 23.64 178.379 23.8C178.272 23.9467 178.125 24.1267 177.939 24.34C177.765 24.54 177.545 24.78 177.279 25.06C176.959 25.4067 176.625 25.7467 176.279 26.08C175.945 26.4133 175.579 26.7667 175.179 27.14C174.925 27.3667 174.639 27.44 174.319 27.36C174.012 27.2667 173.765 27.12 173.579 26.92C173.379 26.6933 173.272 26.4267 173.259 26.12C173.245 25.8133 173.359 25.5467 173.599 25.32C174.425 24.56 175.199 23.7867 175.919 23C176.199 22.6933 176.432 22.4 176.619 22.12C176.819 21.8267 176.979 21.5267 177.099 21.22C177.219 20.9133 177.305 20.5933 177.359 20.26C177.425 19.9267 177.459 19.56 177.459 19.16V16.36C177.459 15.9733 177.585 15.6933 177.839 15.52C178.105 15.3467 178.412 15.26 178.759 15.26C179.105 15.26 179.405 15.3467 179.659 15.52C179.925 15.6933 180.059 15.9733 180.059 16.36V19.16ZM188.179 30.74C188.179 31.1133 188.045 31.3867 187.779 31.56C187.525 31.7333 187.225 31.82 186.879 31.82C186.545 31.82 186.245 31.7333 185.979 31.56C185.725 31.3867 185.599 31.1133 185.599 30.74V15.42C185.599 15.0467 185.725 14.7733 185.979 14.6C186.245 14.4267 186.545 14.34 186.879 14.34C187.225 14.34 187.525 14.4267 187.779 14.6C188.045 14.7733 188.179 15.0467 188.179 15.42V30.74ZM197.862 17.52V18.02C197.862 18.6333 197.955 19.1467 198.142 19.56C198.329 19.9733 198.635 20.36 199.062 20.72C199.502 21.08 199.909 21.4067 200.282 21.7C200.669 21.98 201.009 22.2267 201.302 22.44C201.582 22.64 201.729 22.8867 201.742 23.18C201.755 23.46 201.669 23.7267 201.482 23.98C201.402 24.0867 201.309 24.1867 201.202 24.28C201.095 24.36 200.969 24.42 200.822 24.46C200.689 24.5 200.542 24.5133 200.382 24.5C200.235 24.4733 200.082 24.4067 199.922 24.3C199.695 24.14 199.409 23.9333 199.062 23.68C198.729 23.4133 198.362 23.12 197.962 22.8C197.482 22.4133 197.149 22.1133 196.962 21.9C196.789 21.6867 196.675 21.4867 196.622 21.3H196.602C196.549 21.5267 196.422 21.76 196.222 22C196.022 22.24 195.682 22.5533 195.202 22.94C194.429 23.5533 193.655 24.1333 192.882 24.68C192.589 24.8933 192.295 24.9467 192.002 24.84C191.709 24.72 191.489 24.5533 191.342 24.34C191.169 24.1 191.082 23.8267 191.082 23.52C191.082 23.2133 191.235 22.9533 191.542 22.74C191.995 22.42 192.422 22.1067 192.822 21.8C193.235 21.4933 193.662 21.16 194.102 20.8C194.529 20.44 194.835 20.0533 195.022 19.64C195.209 19.2267 195.302 18.7133 195.302 18.1V17.52H192.322C192.015 17.52 191.789 17.4133 191.642 17.2C191.495 16.9867 191.422 16.7333 191.422 16.44C191.422 16.1467 191.495 15.8933 191.642 15.68C191.789 15.4667 192.015 15.36 192.322 15.36H200.642C200.949 15.36 201.175 15.4667 201.322 15.68C201.469 15.8933 201.542 16.1467 201.542 16.44C201.542 16.7333 201.469 16.9867 201.322 17.2C201.175 17.4133 200.949 17.52 200.642 17.52H197.862ZM207.402 18.54C207.722 18.54 207.955 18.6467 208.102 18.86C208.249 19.0733 208.322 19.3333 208.322 19.64C208.322 19.9467 208.249 20.2133 208.102 20.44C207.955 20.6533 207.722 20.76 207.402 20.76H205.522V24.2C205.522 24.5733 205.389 24.8467 205.122 25.02C204.869 25.1933 204.575 25.28 204.242 25.28C203.909 25.28 203.609 25.1933 203.342 25.02C203.089 24.8467 202.962 24.5733 202.962 24.2V15.42C202.962 15.0467 203.089 14.7733 203.342 14.6C203.609 14.4267 203.909 14.34 204.242 14.34C204.575 14.34 204.869 14.4267 205.122 14.6C205.389 14.7733 205.522 15.0467 205.522 15.42V18.54H207.402ZM202.962 28.64C202.962 28.3333 202.809 28.18 202.502 28.18H194.262C193.955 28.18 193.729 28.0733 193.582 27.86C193.435 27.6467 193.362 27.3933 193.362 27.1C193.362 26.8067 193.435 26.5533 193.582 26.34C193.729 26.1267 193.955 26.02 194.262 26.02H203.822C204.462 26.02 204.902 26.14 205.142 26.38C205.395 26.62 205.522 27.0533 205.522 27.68V32.06C205.522 32.4333 205.389 32.7067 205.122 32.88C204.869 33.0533 204.575 33.14 204.242 33.14C203.909 33.14 203.609 33.0533 203.342 32.88C203.089 32.7067 202.962 32.4333 202.962 32.06V28.64ZM214.725 19.92C215.405 19.92 216.018 20.02 216.565 20.22C217.125 20.4067 217.592 20.6733 217.965 21.02C218.352 21.3667 218.645 21.7933 218.845 22.3C219.058 22.7933 219.165 23.34 219.165 23.94C219.165 24.54 219.058 25.0933 218.845 25.6C218.645 26.0933 218.352 26.5133 217.965 26.86C217.592 27.2067 217.125 27.48 216.565 27.68C216.018 27.8667 215.405 27.96 214.725 27.96C214.045 27.96 213.425 27.8667 212.865 27.68C212.318 27.48 211.852 27.2067 211.465 26.86C211.092 26.5133 210.798 26.0933 210.585 25.6C210.385 25.0933 210.285 24.54 210.285 23.94C210.285 23.34 210.385 22.7933 210.585 22.3C210.798 21.7933 211.092 21.3667 211.465 21.02C211.852 20.6733 212.318 20.4067 212.865 20.22C213.425 20.02 214.045 19.92 214.725 19.92ZM213.445 16.76V15.38C213.445 15.0067 213.572 14.7333 213.825 14.56C214.092 14.3867 214.392 14.3 214.725 14.3C215.058 14.3 215.352 14.3867 215.605 14.56C215.872 14.7333 216.005 15.0067 216.005 15.38V16.76H219.145C219.452 16.76 219.678 16.8667 219.825 17.08C219.972 17.2933 220.045 17.5467 220.045 17.84C220.045 18.1333 219.972 18.3867 219.825 18.6C219.678 18.8133 219.452 18.92 219.145 18.92H210.065C209.758 18.92 209.532 18.8133 209.385 18.6C209.238 18.3867 209.165 18.1333 209.165 17.84C209.165 17.5467 209.238 17.2933 209.385 17.08C209.532 16.8667 209.758 16.76 210.065 16.76H213.445ZM214.725 25.92C215.365 25.92 215.878 25.7467 216.265 25.4C216.652 25.04 216.845 24.5533 216.845 23.94C216.845 23.3267 216.652 22.8467 216.265 22.5C215.878 22.14 215.365 21.96 214.725 21.96C214.085 21.96 213.572 22.14 213.185 22.5C212.798 22.8467 212.605 23.3267 212.605 23.94C212.605 24.5533 212.798 25.04 213.185 25.4C213.572 25.7467 214.085 25.92 214.725 25.92ZM223.725 20.44H225.605C225.925 20.44 226.158 20.5467 226.305 20.76C226.452 20.9733 226.525 21.2333 226.525 21.54C226.525 21.8467 226.452 22.1133 226.305 22.34C226.158 22.5533 225.925 22.66 225.605 22.66H223.725V30.74C223.725 31.1133 223.592 31.3867 223.325 31.56C223.072 31.7333 222.785 31.82 222.465 31.82C222.132 31.82 221.832 31.7333 221.565 31.56C221.312 31.3867 221.185 31.1133 221.185 30.74V15.42C221.185 15.0467 221.312 14.7733 221.565 14.6C221.832 14.4267 222.132 14.34 222.465 14.34C222.785 14.34 223.072 14.4267 223.325 14.6C223.592 14.7733 223.725 15.0467 223.725 15.42V20.44ZM229.328 17.88C229.021 17.88 228.795 17.7733 228.648 17.56C228.501 17.3467 228.428 17.0933 228.428 16.8C228.428 16.4933 228.501 16.2333 228.648 16.02C228.795 15.8067 229.021 15.7 229.328 15.7H235.348C235.988 15.7 236.428 15.82 236.668 16.06C236.921 16.3 237.048 16.7333 237.048 17.36V19.58C237.048 20.14 237.015 20.6467 236.948 21.1C236.881 21.5533 236.755 21.9867 236.568 22.4C236.395 22.8 236.148 23.1933 235.828 23.58C235.508 23.9667 235.088 24.3733 234.568 24.8C234.048 25.2267 233.415 25.6867 232.668 26.18C231.935 26.6733 231.061 27.2267 230.048 27.84C229.768 28.0133 229.475 28.0467 229.168 27.94C228.875 27.82 228.648 27.64 228.488 27.4C228.328 27.16 228.248 26.88 228.248 26.56C228.248 26.24 228.395 25.9867 228.688 25.8C229.595 25.2533 230.368 24.7733 231.008 24.36C231.661 23.9333 232.201 23.5533 232.628 23.22C233.068 22.8867 233.408 22.58 233.648 22.3C233.901 22.02 234.088 21.74 234.208 21.46C234.341 21.1667 234.421 20.8667 234.448 20.56C234.488 20.2533 234.508 19.9 234.508 19.5V18.34C234.508 18.0333 234.355 17.88 234.048 17.88H229.328ZM242.788 30.74C242.788 31.1133 242.655 31.3867 242.388 31.56C242.135 31.7333 241.835 31.82 241.488 31.82C241.155 31.82 240.855 31.7333 240.588 31.56C240.335 31.3867 240.208 31.1133 240.208 30.74V15.42C240.208 15.0467 240.335 14.7733 240.588 14.6C240.855 14.4267 241.155 14.34 241.488 14.34C241.835 14.34 242.135 14.4267 242.388 14.6C242.655 14.7733 242.788 15.0467 242.788 15.42V30.74Z" fill="white"/>
</svg>
