<svg width="300" height="127" viewBox="0 0 300 127" fill="none" xmlns="http://www.w3.org/2000/svg">
<rect x="41" y="57" width="218" height="50" fill="#D9D9D9"/>
<path d="M71.4633 73.74C71.6499 73.74 71.8166 73.7867 71.9633 73.88C72.1233 73.9733 72.2033 74.1267 72.2033 74.34V83.3C72.2033 83.5533 72.3299 83.68 72.5833 83.68C74.0366 83.68 75.3699 83.64 76.5833 83.56C77.8099 83.48 79.0233 83.36 80.2233 83.2C80.3833 83.1733 80.5166 83.2133 80.6233 83.32C80.7299 83.4133 80.7966 83.5533 80.8233 83.74C80.8499 83.9267 80.8233 84.0933 80.7433 84.24C80.6766 84.3733 80.5633 84.4533 80.4033 84.48C79.8833 84.5467 79.3299 84.6133 78.7433 84.68C78.1699 84.7333 77.5433 84.78 76.8633 84.82C76.1966 84.86 75.4699 84.8933 74.6833 84.92C73.8966 84.9333 73.0366 84.94 72.1033 84.94C71.5833 84.94 71.2233 84.8467 71.0233 84.66C70.8233 84.46 70.7233 84.1067 70.7233 83.6V74.34C70.7233 74.1267 70.7966 73.9733 70.9433 73.88C71.1033 73.7867 71.2766 73.74 71.4633 73.74ZM83.0833 72.52C83.2699 72.52 83.4366 72.5667 83.5833 72.66C83.7433 72.7533 83.8233 72.9067 83.8233 73.12V78.7H86.3633C86.5499 78.7 86.6833 78.7667 86.7633 78.9C86.8433 79.02 86.8833 79.1667 86.8833 79.34C86.8833 79.5267 86.8433 79.6867 86.7633 79.82C86.6833 79.94 86.5499 80 86.3633 80H83.8233V89.04C83.8233 89.2533 83.7433 89.4067 83.5833 89.5C83.4366 89.5933 83.2699 89.64 83.0833 89.64C82.8966 89.64 82.7299 89.5933 82.5833 89.5C82.4366 89.4067 82.3633 89.2533 82.3633 89.04V73.12C82.3633 72.9067 82.4366 72.7533 82.5833 72.66C82.7299 72.5667 82.8966 72.52 83.0833 72.52ZM98.9064 73.12C99.093 73.12 99.2597 73.1667 99.4064 73.26C99.5664 73.3533 99.6464 73.5067 99.6464 73.72V75.68C99.6464 76.3467 99.753 76.92 99.9664 77.4C100.193 77.8667 100.56 78.3067 101.066 78.72C101.573 79.1067 102.053 79.4733 102.506 79.82C102.96 80.1533 103.36 80.4467 103.706 80.7C103.88 80.82 103.973 80.9667 103.986 81.14C104 81.3133 103.953 81.4733 103.846 81.62C103.753 81.7533 103.626 81.8467 103.466 81.9C103.306 81.94 103.133 81.9 102.946 81.78C102.666 81.5933 102.313 81.34 101.886 81.02C101.46 80.7 101.006 80.3533 100.526 79.98C99.993 79.5533 99.6064 79.2 99.3664 78.92C99.1264 78.6267 98.9797 78.3733 98.9264 78.16H98.9064C98.853 78.3867 98.7064 78.6467 98.4664 78.94C98.2264 79.2333 97.833 79.5933 97.2864 80.02C96.8197 80.4067 96.353 80.7667 95.8864 81.1C95.433 81.4333 94.993 81.7467 94.5664 82.04C94.393 82.1733 94.2197 82.2133 94.0464 82.16C93.8864 82.1067 93.7597 82.0133 93.6664 81.88C93.5597 81.7333 93.5064 81.5733 93.5064 81.4C93.5197 81.2133 93.613 81.06 93.7864 80.94C94.3064 80.58 94.7997 80.2267 95.2664 79.88C95.7464 79.52 96.2397 79.14 96.7464 78.74C97.253 78.3267 97.613 77.8867 97.8264 77.42C98.053 76.94 98.1664 76.3667 98.1664 75.7V73.72C98.1664 73.5067 98.2397 73.3533 98.3864 73.26C98.5464 73.1667 98.7197 73.12 98.9064 73.12ZM107.166 72.52C107.353 72.52 107.52 72.5667 107.666 72.66C107.813 72.7533 107.886 72.9067 107.886 73.12V82.22C107.886 82.4333 107.813 82.5867 107.666 82.68C107.52 82.7733 107.353 82.82 107.166 82.82C106.98 82.82 106.806 82.7733 106.646 82.68C106.5 82.5867 106.426 82.4333 106.426 82.22V73.12C106.426 72.9067 106.5 72.7533 106.646 72.66C106.806 72.5667 106.98 72.52 107.166 72.52ZM106.506 83.84C107.026 83.84 107.386 83.94 107.586 84.14C107.786 84.3267 107.886 84.6733 107.886 85.18V89.32C107.886 89.8267 107.786 90.1733 107.586 90.36C107.386 90.56 107.026 90.66 106.506 90.66H97.9264C97.4064 90.66 97.0464 90.56 96.8464 90.36C96.6464 90.1733 96.5464 89.8267 96.5464 89.32V85.18C96.5464 84.6733 96.6464 84.3267 96.8464 84.14C97.0464 83.94 97.4064 83.84 97.9264 83.84H106.506ZM98.3864 85.08C98.133 85.08 98.0064 85.2067 98.0064 85.46V89.04C98.0064 89.2933 98.133 89.42 98.3864 89.42H106.066C106.32 89.42 106.446 89.2933 106.446 89.04V85.46C106.446 85.2067 106.32 85.08 106.066 85.08H98.3864ZM117.11 73.12C117.296 73.12 117.463 73.1667 117.61 73.26C117.77 73.3533 117.85 73.5067 117.85 73.72V75.68C117.85 76.3467 117.956 76.92 118.17 77.4C118.396 77.8667 118.763 78.3067 119.27 78.72C119.776 79.1067 120.256 79.4733 120.71 79.82C121.163 80.1533 121.563 80.4467 121.91 80.7C122.083 80.82 122.176 80.9667 122.19 81.14C122.203 81.3133 122.156 81.4733 122.05 81.62C121.956 81.7533 121.83 81.8467 121.67 81.9C121.51 81.94 121.336 81.9 121.15 81.78C120.87 81.5933 120.516 81.34 120.09 81.02C119.663 80.7 119.21 80.3533 118.73 79.98C118.196 79.5533 117.81 79.2 117.57 78.92C117.33 78.6267 117.183 78.3733 117.13 78.16H117.11C117.056 78.3867 116.91 78.6467 116.67 78.94C116.43 79.2333 116.036 79.5933 115.49 80.02C115.023 80.4067 114.556 80.7667 114.09 81.1C113.636 81.4333 113.196 81.7467 112.77 82.04C112.596 82.1733 112.423 82.2133 112.25 82.16C112.09 82.1067 111.963 82.0133 111.87 81.88C111.763 81.7333 111.71 81.5733 111.71 81.4C111.723 81.2133 111.816 81.06 111.99 80.94C112.51 80.58 113.003 80.2267 113.47 79.88C113.95 79.52 114.443 79.14 114.95 78.74C115.456 78.3267 115.816 77.8867 116.03 77.42C116.256 76.94 116.37 76.3667 116.37 75.7V73.72C116.37 73.5067 116.443 73.3533 116.59 73.26C116.75 73.1667 116.923 73.12 117.11 73.12ZM125.37 72.52C125.556 72.52 125.723 72.5667 125.87 72.66C126.016 72.7533 126.09 72.9067 126.09 73.12V82.22C126.09 82.4333 126.016 82.5867 125.87 82.68C125.723 82.7733 125.556 82.82 125.37 82.82C125.183 82.82 125.01 82.7733 124.85 82.68C124.703 82.5867 124.63 82.4333 124.63 82.22V73.12C124.63 72.9067 124.703 72.7533 124.85 72.66C125.01 72.5667 125.183 72.52 125.37 72.52ZM124.71 83.84C125.23 83.84 125.59 83.94 125.79 84.14C125.99 84.3267 126.09 84.6733 126.09 85.18V89.32C126.09 89.8267 125.99 90.1733 125.79 90.36C125.59 90.56 125.23 90.66 124.71 90.66H116.13C115.61 90.66 115.25 90.56 115.05 90.36C114.85 90.1733 114.75 89.8267 114.75 89.32V85.18C114.75 84.6733 114.85 84.3267 115.05 84.14C115.25 83.94 115.61 83.84 116.13 83.84H124.71ZM116.59 85.08C116.336 85.08 116.21 85.2067 116.21 85.46V89.04C116.21 89.2933 116.336 89.42 116.59 89.42H124.27C124.523 89.42 124.65 89.2933 124.65 89.04V85.46C124.65 85.2067 124.523 85.08 124.27 85.08H116.59ZM133.993 78.02C134.606 78.02 135.139 78.12 135.593 78.32C136.059 78.5067 136.446 78.7733 136.753 79.12C137.059 79.4533 137.286 79.8533 137.433 80.32C137.593 80.7733 137.673 81.2667 137.673 81.8C137.673 82.3333 137.593 82.8333 137.433 83.3C137.286 83.7533 137.059 84.1533 136.753 84.5C136.446 84.8333 136.059 85.1 135.593 85.3C135.139 85.4867 134.606 85.58 133.993 85.58C133.379 85.58 132.839 85.4867 132.373 85.3C131.919 85.1 131.539 84.8333 131.233 84.5C130.939 84.1533 130.713 83.7533 130.553 83.3C130.406 82.8333 130.333 82.3333 130.333 81.8C130.333 81.2667 130.406 80.7733 130.553 80.32C130.713 79.8533 130.939 79.4533 131.233 79.12C131.539 78.7733 131.919 78.5067 132.373 78.32C132.839 78.12 133.379 78.02 133.993 78.02ZM133.993 72.64C134.179 72.64 134.346 72.6867 134.493 72.78C134.639 72.8733 134.713 73.0267 134.713 73.24V75.26H137.993C138.179 75.26 138.313 75.32 138.393 75.44C138.473 75.56 138.513 75.7067 138.513 75.88C138.513 76.0667 138.473 76.22 138.393 76.34C138.313 76.46 138.179 76.52 137.993 76.52H129.753C129.579 76.52 129.453 76.46 129.373 76.34C129.293 76.22 129.253 76.0667 129.253 75.88C129.253 75.7067 129.293 75.56 129.373 75.44C129.453 75.32 129.579 75.26 129.753 75.26H133.273V73.24C133.273 73.0267 133.346 72.8733 133.493 72.78C133.639 72.6867 133.806 72.64 133.993 72.64ZM133.993 79.26C133.593 79.26 133.239 79.3267 132.933 79.46C132.639 79.5933 132.393 79.7733 132.193 80C132.006 80.2267 131.866 80.4933 131.773 80.8C131.679 81.1067 131.633 81.44 131.633 81.8C131.633 82.52 131.819 83.1267 132.193 83.62C132.579 84.1133 133.179 84.36 133.993 84.36C134.819 84.36 135.419 84.1133 135.793 83.62C136.179 83.1267 136.373 82.52 136.373 81.8C136.373 81.44 136.326 81.1067 136.233 80.8C136.139 80.4933 135.993 80.2267 135.793 80C135.606 79.7733 135.359 79.5933 135.053 79.46C134.759 79.3267 134.406 79.26 133.993 79.26ZM144.173 72.52C144.359 72.52 144.519 72.5667 144.653 72.66C144.799 72.7533 144.873 72.9 144.873 73.1V89.06C144.873 89.26 144.799 89.4067 144.653 89.5C144.519 89.5933 144.359 89.64 144.173 89.64C143.999 89.64 143.839 89.5933 143.693 89.5C143.559 89.4067 143.493 89.26 143.493 89.06V80.26H140.873V88.22C140.873 88.42 140.799 88.5667 140.653 88.66C140.519 88.7533 140.359 88.8 140.173 88.8C139.999 88.8 139.839 88.7533 139.693 88.66C139.559 88.5667 139.493 88.42 139.493 88.22V73.3C139.493 73.1 139.559 72.9533 139.693 72.86C139.839 72.7667 139.999 72.72 140.173 72.72C140.359 72.72 140.519 72.7667 140.653 72.86C140.799 72.9533 140.873 73.1 140.873 73.3V79H143.493V73.1C143.493 72.9 143.559 72.7533 143.693 72.66C143.839 72.5667 143.999 72.52 144.173 72.52ZM149.196 86.26C149.529 86.26 149.802 86.3733 150.016 86.6C150.229 86.8133 150.336 87.08 150.336 87.4C150.336 87.7067 150.229 87.9667 150.016 88.18C149.802 88.4067 149.529 88.52 149.196 88.52C148.876 88.52 148.602 88.4067 148.376 88.18C148.162 87.9667 148.056 87.7067 148.056 87.4C148.056 87.08 148.162 86.8133 148.376 86.6C148.602 86.3733 148.876 86.26 149.196 86.26ZM153.825 86.26C154.158 86.26 154.431 86.3733 154.645 86.6C154.858 86.8133 154.965 87.08 154.965 87.4C154.965 87.7067 154.858 87.9667 154.645 88.18C154.431 88.4067 154.158 88.52 153.825 88.52C153.505 88.52 153.231 88.4067 153.005 88.18C152.791 87.9667 152.685 87.7067 152.685 87.4C152.685 87.08 152.791 86.8133 153.005 86.6C153.231 86.3733 153.505 86.26 153.825 86.26ZM158.454 86.26C158.787 86.26 159.06 86.3733 159.274 86.6C159.487 86.8133 159.594 87.08 159.594 87.4C159.594 87.7067 159.487 87.9667 159.274 88.18C159.06 88.4067 158.787 88.52 158.454 88.52C158.134 88.52 157.86 88.4067 157.634 88.18C157.42 87.9667 157.314 87.7067 157.314 87.4C157.314 87.08 157.42 86.8133 157.634 86.6C157.86 86.3733 158.134 86.26 158.454 86.26Z" fill="black"/>
<path d="M45.92 21.08C46.0667 21.16 46.1533 21.2733 46.18 21.42C46.22 21.5533 46.1933 21.6933 46.1 21.84C45.34 23.0267 44.7733 24.2933 44.4 25.64C44.0267 26.9867 43.84 28.4267 43.84 29.96V30.58C43.84 32.1133 44.0267 33.56 44.4 34.92C44.7733 36.2667 45.34 37.5333 46.1 38.72C46.1933 38.8667 46.22 39.0067 46.18 39.14C46.1533 39.2733 46.0667 39.38 45.92 39.46C45.6267 39.6333 45.3533 39.5733 45.1 39.28C44.18 38.1333 43.4867 36.8067 43.02 35.3C42.5667 33.7933 42.34 32.1867 42.34 30.48V30.06C42.34 28.3533 42.5667 26.7467 43.02 25.24C43.4867 23.7333 44.18 22.4067 45.1 21.26C45.34 20.98 45.6133 20.92 45.92 21.08ZM50.1472 22.38C50.3472 22.38 50.5205 22.4267 50.6672 22.52C50.8139 22.6133 50.8872 22.7667 50.8872 22.98V28.9C50.8872 29.14 51.0139 29.26 51.2672 29.26C52.8005 29.26 54.1939 29.2267 55.4472 29.16C56.7005 29.08 57.9205 28.9533 59.1072 28.78C59.2672 28.7533 59.4005 28.7933 59.5072 28.9C59.6139 29.0067 59.6805 29.1467 59.7072 29.32C59.7339 29.5067 59.7072 29.6733 59.6272 29.82C59.5605 29.9533 59.4472 30.0333 59.2872 30.06C58.7672 30.14 58.2139 30.2133 57.6272 30.28C57.0539 30.3333 56.4205 30.38 55.7272 30.42C55.0472 30.46 54.3005 30.4933 53.4872 30.52C52.6739 30.5333 51.7805 30.54 50.8072 30.54C50.2872 30.54 49.9272 30.4467 49.7272 30.26C49.5272 30.06 49.4272 29.7067 49.4272 29.2V22.98C49.4272 22.7667 49.5005 22.6133 49.6472 22.52C49.7939 22.4267 49.9605 22.38 50.1472 22.38ZM62.2472 21.52C62.4339 21.52 62.6005 21.5667 62.7472 21.66C62.8939 21.7533 62.9672 21.9067 62.9672 22.12V31.62C62.9672 31.8333 62.8939 31.9867 62.7472 32.08C62.6005 32.1733 62.4339 32.22 62.2472 32.22C62.0605 32.22 61.8872 32.1733 61.7272 32.08C61.5805 31.9867 61.5072 31.8333 61.5072 31.62V22.12C61.5072 21.9067 61.5805 21.7533 61.7272 21.66C61.8872 21.5667 62.0605 21.52 62.2472 21.52ZM61.5872 33.24C62.1072 33.24 62.4672 33.34 62.6672 33.54C62.8672 33.7267 62.9672 34.0733 62.9672 34.58V39.36C62.9672 39.5733 62.8872 39.7267 62.7272 39.82C62.5805 39.9133 62.4139 39.96 62.2272 39.96C62.0405 39.96 61.8739 39.9133 61.7272 39.82C61.5805 39.7267 61.5072 39.5733 61.5072 39.36V34.86C61.5072 34.62 61.3805 34.5 61.1272 34.5H51.7672C51.5939 34.5 51.4672 34.44 51.3872 34.32C51.3072 34.2 51.2672 34.0533 51.2672 33.88C51.2672 33.6933 51.3072 33.54 51.3872 33.42C51.4672 33.3 51.5939 33.24 51.7672 33.24H61.5872ZM67.7503 22.86C67.937 22.86 68.1036 22.9067 68.2503 23C68.4103 23.0933 68.4903 23.2467 68.4903 23.46V32.3C68.4903 32.5533 68.617 32.68 68.8703 32.68C69.2703 32.68 69.7103 32.6733 70.1903 32.66C70.6703 32.6333 71.1503 32.6067 71.6303 32.58C72.1236 32.5533 72.597 32.52 73.0503 32.48C73.517 32.4267 73.937 32.3667 74.3103 32.3C74.457 32.2733 74.5836 32.3133 74.6903 32.42C74.797 32.5133 74.8636 32.6533 74.8903 32.84C74.917 33.0267 74.8903 33.1933 74.8103 33.34C74.7436 33.4733 74.6303 33.5533 74.4703 33.58C74.177 33.6333 73.8103 33.68 73.3703 33.72C72.9303 33.76 72.4436 33.8 71.9103 33.84C71.3903 33.8667 70.8303 33.8933 70.2303 33.92C69.6303 33.9333 69.017 33.94 68.3903 33.94C67.8703 33.94 67.5103 33.8467 67.3103 33.66C67.1103 33.46 67.0103 33.1067 67.0103 32.6V23.46C67.0103 23.2467 67.0836 23.0933 67.2303 23C67.3903 22.9067 67.5636 22.86 67.7503 22.86ZM81.0503 21.52C81.237 21.52 81.397 21.5667 81.5303 21.66C81.677 21.7533 81.7503 21.9 81.7503 22.1V38.06C81.7503 38.26 81.677 38.4067 81.5303 38.5C81.397 38.5933 81.237 38.64 81.0503 38.64C80.877 38.64 80.717 38.5933 80.5703 38.5C80.437 38.4067 80.3703 38.26 80.3703 38.06V22.1C80.3703 21.9 80.437 21.7533 80.5703 21.66C80.717 21.5667 80.877 21.52 81.0503 21.52ZM77.4103 21.72C77.5836 21.72 77.737 21.7667 77.8703 21.86C78.017 21.9533 78.0903 22.1 78.0903 22.3V37.22C78.0903 37.42 78.017 37.5667 77.8703 37.66C77.737 37.7533 77.5836 37.8 77.4103 37.8C77.2236 37.8 77.057 37.7533 76.9103 37.66C76.777 37.5667 76.7103 37.42 76.7103 37.22V28.4H72.9503C72.7636 28.4 72.6303 28.34 72.5503 28.22C72.4703 28.1 72.4303 27.9467 72.4303 27.76C72.4303 27.5867 72.4703 27.44 72.5503 27.32C72.6303 27.1867 72.7636 27.12 72.9503 27.12H76.7103V22.3C76.7103 22.1 76.777 21.9533 76.9103 21.86C77.057 21.7667 77.2236 21.72 77.4103 21.72ZM89.8534 22.28C90.6134 22.28 91.2734 22.3933 91.8334 22.62C92.4068 22.8333 92.8801 23.1333 93.2534 23.52C93.6268 23.8933 93.9068 24.34 94.0934 24.86C94.2801 25.3667 94.3734 25.92 94.3734 26.52C94.3734 27.12 94.2801 27.68 94.0934 28.2C93.9068 28.7067 93.6268 29.1533 93.2534 29.54C92.8801 29.9133 92.4068 30.2067 91.8334 30.42C91.2734 30.6333 90.6134 30.74 89.8534 30.74C89.0934 30.74 88.4268 30.6333 87.8534 30.42C87.2934 30.2067 86.8268 29.9133 86.4534 29.54C86.0801 29.1533 85.8001 28.7067 85.6134 28.2C85.4268 27.68 85.3334 27.12 85.3334 26.52C85.3334 25.92 85.4268 25.3667 85.6134 24.86C85.8001 24.34 86.0801 23.8933 86.4534 23.52C86.8268 23.1333 87.2934 22.8333 87.8534 22.62C88.4268 22.3933 89.0934 22.28 89.8534 22.28ZM89.8534 23.52C89.2934 23.52 88.8201 23.6 88.4334 23.76C88.0468 23.92 87.7268 24.14 87.4734 24.42C87.2201 24.6867 87.0334 25.0067 86.9134 25.38C86.8068 25.74 86.7534 26.12 86.7534 26.52C86.7534 26.92 86.8068 27.3067 86.9134 27.68C87.0334 28.04 87.2201 28.3533 87.4734 28.62C87.7268 28.8867 88.0468 29.1 88.4334 29.26C88.8201 29.42 89.2934 29.5 89.8534 29.5C90.4134 29.5 90.8868 29.42 91.2734 29.26C91.6601 29.1 91.9801 28.8867 92.2334 28.62C92.4868 28.3533 92.6668 28.04 92.7734 27.68C92.8934 27.3067 92.9534 26.92 92.9534 26.52C92.9534 26.12 92.8934 25.74 92.7734 25.38C92.6668 25.0067 92.4868 24.6867 92.2334 24.42C91.9801 24.14 91.6601 23.92 91.2734 23.76C90.8868 23.6 90.4134 23.52 89.8534 23.52ZM98.6534 21.52C98.8401 21.52 99.0068 21.5667 99.1534 21.66C99.3001 21.7533 99.3734 21.9067 99.3734 22.12V31.22C99.3734 31.4333 99.3001 31.5867 99.1534 31.68C99.0068 31.7733 98.8401 31.82 98.6534 31.82C98.4668 31.82 98.2934 31.7733 98.1334 31.68C97.9868 31.5867 97.9134 31.4333 97.9134 31.22V22.12C97.9134 21.9067 97.9868 21.7533 98.1334 21.66C98.2934 21.5667 98.4668 21.52 98.6534 21.52ZM97.9934 32.84C98.5134 32.84 98.8734 32.94 99.0734 33.14C99.2734 33.3267 99.3734 33.6733 99.3734 34.18V38.32C99.3734 38.8267 99.2734 39.1733 99.0734 39.36C98.8734 39.56 98.5134 39.66 97.9934 39.66H89.4134C88.8934 39.66 88.5334 39.56 88.3334 39.36C88.1334 39.1733 88.0334 38.8267 88.0334 38.32V34.18C88.0334 33.6733 88.1334 33.3267 88.3334 33.14C88.5334 32.94 88.8934 32.84 89.4134 32.84H97.9934ZM89.8734 34.08C89.6201 34.08 89.4934 34.2067 89.4934 34.46V38.04C89.4934 38.2933 89.6201 38.42 89.8734 38.42H97.5534C97.8068 38.42 97.9334 38.2933 97.9334 38.04V34.46C97.9334 34.2067 97.8068 34.08 97.5534 34.08H89.8734ZM103.417 21.08C103.723 20.92 103.997 20.98 104.237 21.26C105.157 22.4067 105.85 23.7333 106.317 25.24C106.783 26.7467 107.017 28.3533 107.017 30.06V30.48C107.017 32.1867 106.783 33.7933 106.317 35.3C105.85 36.8067 105.157 38.1333 104.237 39.28C103.983 39.5733 103.71 39.6333 103.417 39.46C103.283 39.38 103.197 39.2733 103.157 39.14C103.13 39.0067 103.157 38.8667 103.237 38.72C104.01 37.5333 104.577 36.2667 104.937 34.92C105.31 33.56 105.497 32.1133 105.497 30.58V29.96C105.497 28.4267 105.31 26.9867 104.937 25.64C104.577 24.2933 104.01 23.0267 103.237 21.84C103.157 21.6933 103.13 21.5533 103.157 21.42C103.197 21.2733 103.283 21.16 103.417 21.08ZM111.124 22.38C111.324 22.38 111.497 22.4267 111.644 22.52C111.79 22.6133 111.864 22.7667 111.864 22.98V28.7C111.864 28.94 111.99 29.06 112.244 29.06C113.777 29.06 115.17 29.0267 116.424 28.96C117.677 28.88 118.897 28.7533 120.084 28.58C120.244 28.5533 120.377 28.5933 120.484 28.7C120.59 28.8067 120.657 28.9467 120.684 29.12C120.71 29.3067 120.684 29.4733 120.604 29.62C120.537 29.7533 120.424 29.8333 120.264 29.86C119.744 29.94 119.19 30.0133 118.604 30.08C118.03 30.1333 117.397 30.18 116.704 30.22C116.024 30.26 115.277 30.2933 114.464 30.32C113.65 30.3333 112.757 30.34 111.784 30.34C111.264 30.34 110.904 30.2467 110.704 30.06C110.504 29.86 110.404 29.5067 110.404 29V22.98C110.404 22.7667 110.477 22.6133 110.624 22.52C110.77 22.4267 110.937 22.38 111.124 22.38ZM123.224 21.52C123.41 21.52 123.577 21.5667 123.724 21.66C123.87 21.7533 123.944 21.9067 123.944 22.12V31.22C123.944 31.4333 123.87 31.5867 123.724 31.68C123.577 31.7733 123.41 31.82 123.224 31.82C123.037 31.82 122.864 31.7733 122.704 31.68C122.557 31.5867 122.484 31.4333 122.484 31.22V22.12C122.484 21.9067 122.557 21.7533 122.704 21.66C122.864 21.5667 123.037 21.52 123.224 21.52ZM122.564 32.84C123.084 32.84 123.444 32.94 123.644 33.14C123.844 33.3267 123.944 33.6733 123.944 34.18V38.32C123.944 38.8267 123.844 39.1733 123.644 39.36C123.444 39.56 123.084 39.66 122.564 39.66H113.984C113.464 39.66 113.104 39.56 112.904 39.36C112.704 39.1733 112.604 38.8267 112.604 38.32V34.18C112.604 33.6733 112.704 33.3267 112.904 33.14C113.104 32.94 113.464 32.84 113.984 32.84H122.564ZM114.444 34.08C114.19 34.08 114.064 34.2067 114.064 34.46V38.04C114.064 38.2933 114.19 38.42 114.444 38.42H122.124C122.377 38.42 122.504 38.2933 122.504 38.04V34.46C122.504 34.2067 122.377 34.08 122.124 34.08H114.444ZM133.427 22.58C134.214 22.58 134.9 22.6933 135.487 22.92C136.074 23.1333 136.56 23.4333 136.947 23.82C137.347 24.1933 137.647 24.64 137.847 25.16C138.047 25.68 138.147 26.24 138.147 26.84C138.147 27.44 138.047 28 137.847 28.52C137.647 29.0267 137.347 29.4733 136.947 29.86C136.56 30.2333 136.074 30.5333 135.487 30.76C134.9 30.9733 134.214 31.08 133.427 31.08C132.64 31.08 131.954 30.9733 131.367 30.76C130.78 30.5333 130.287 30.2333 129.887 29.86C129.5 29.4733 129.207 29.0267 129.007 28.52C128.807 28 128.707 27.44 128.707 26.84C128.707 26.24 128.807 25.68 129.007 25.16C129.207 24.64 129.5 24.1933 129.887 23.82C130.287 23.4333 130.78 23.1333 131.367 22.92C131.954 22.6933 132.64 22.58 133.427 22.58ZM133.427 23.84C132.867 23.84 132.38 23.92 131.967 24.08C131.554 24.24 131.207 24.4533 130.927 24.72C130.66 24.9867 130.46 25.3067 130.327 25.68C130.194 26.04 130.127 26.4267 130.127 26.84C130.127 27.2533 130.194 27.6467 130.327 28.02C130.46 28.38 130.66 28.6933 130.927 28.96C131.207 29.2267 131.554 29.44 131.967 29.6C132.38 29.76 132.867 29.84 133.427 29.84C133.987 29.84 134.474 29.76 134.887 29.6C135.3 29.44 135.64 29.2267 135.907 28.96C136.187 28.6933 136.394 28.38 136.527 28.02C136.66 27.6467 136.727 27.2533 136.727 26.84C136.727 26.4267 136.66 26.04 136.527 25.68C136.394 25.3067 136.187 24.9867 135.907 24.72C135.64 24.4533 135.3 24.24 134.887 24.08C134.474 23.92 133.987 23.84 133.427 23.84ZM139.207 33.74C139.367 33.7133 139.494 33.7533 139.587 33.86C139.68 33.9667 139.74 34.1067 139.767 34.28C139.78 34.4667 139.747 34.6267 139.667 34.76C139.587 34.8933 139.474 34.9667 139.327 34.98C138.394 35.06 137.467 35.1267 136.547 35.18C135.64 35.2333 134.727 35.28 133.807 35.32C132.887 35.36 131.954 35.3867 131.007 35.4C130.06 35.4133 129.087 35.42 128.087 35.42C127.9 35.42 127.767 35.36 127.687 35.24C127.607 35.12 127.567 34.9667 127.567 34.78C127.567 34.6067 127.607 34.46 127.687 34.34C127.767 34.2067 127.9 34.14 128.087 34.14C129.007 34.14 129.914 34.14 130.807 34.14C131.7 34.1267 132.6 34.1067 133.507 34.08C134.414 34.0533 135.334 34.0133 136.267 33.96C137.214 33.9067 138.194 33.8333 139.207 33.74ZM141.787 21.52C141.974 21.52 142.14 21.5667 142.287 21.66C142.434 21.7533 142.507 21.9067 142.507 22.12V38.04C142.507 38.2533 142.434 38.4067 142.287 38.5C142.14 38.5933 141.974 38.64 141.787 38.64C141.6 38.64 141.434 38.5933 141.287 38.5C141.14 38.4067 141.067 38.2533 141.067 38.04V22.12C141.067 21.9067 141.14 21.7533 141.287 21.66C141.434 21.5667 141.6 21.52 141.787 21.52ZM156.85 23.02C157.37 23.02 157.73 23.12 157.93 23.32C158.13 23.5067 158.23 23.8533 158.23 24.36V32.52C158.23 33.0267 158.13 33.38 157.93 33.58C157.73 33.7667 157.37 33.86 156.85 33.86H152.45C151.93 33.86 151.57 33.7667 151.37 33.58C151.17 33.38 151.07 33.0267 151.07 32.52V24.36C151.07 23.8533 151.17 23.5067 151.37 23.32C151.57 23.12 151.93 23.02 152.45 23.02H156.85ZM152.83 24.28C152.577 24.28 152.45 24.4 152.45 24.64V32.24C152.45 32.48 152.577 32.6 152.83 32.6H156.45C156.703 32.6 156.83 32.48 156.83 32.24V24.64C156.83 24.4 156.703 24.28 156.45 24.28H152.83ZM161.71 21.72C161.883 21.72 162.037 21.7667 162.17 21.86C162.317 21.9533 162.39 22.1 162.39 22.3V37.22C162.39 37.42 162.317 37.5667 162.17 37.66C162.037 37.7533 161.883 37.8 161.71 37.8C161.523 37.8 161.357 37.7533 161.21 37.66C161.077 37.5667 161.01 37.42 161.01 37.22V29.06H157.57V27.8H161.01V22.3C161.01 22.1 161.077 21.9533 161.21 21.86C161.357 21.7667 161.523 21.72 161.71 21.72ZM165.23 21.52C165.417 21.52 165.577 21.5667 165.71 21.66C165.857 21.7533 165.93 21.9 165.93 22.1V38.06C165.93 38.26 165.857 38.4067 165.71 38.5C165.577 38.5933 165.417 38.64 165.23 38.64C165.057 38.64 164.897 38.5933 164.75 38.5C164.617 38.4067 164.55 38.26 164.55 38.06V22.1C164.55 21.9 164.617 21.7533 164.75 21.66C164.897 21.5667 165.057 21.52 165.23 21.52ZM174.573 22.44C174.76 22.44 174.926 22.4867 175.073 22.58C175.233 22.6733 175.313 22.8333 175.313 23.06V26.28C175.313 26.72 175.34 27.12 175.393 27.48C175.46 27.8267 175.553 28.16 175.673 28.48C175.806 28.7867 175.98 29.0867 176.193 29.38C176.406 29.6733 176.673 29.9867 176.993 30.32C177.886 31.2533 178.733 32.08 179.533 32.8C179.68 32.92 179.74 33.0733 179.713 33.26C179.686 33.4333 179.613 33.5867 179.493 33.72C179.386 33.8267 179.246 33.9 179.073 33.94C178.9 33.9667 178.74 33.9067 178.593 33.76C178.233 33.44 177.866 33.1 177.493 32.74C177.12 32.3667 176.713 31.9533 176.273 31.5C175.953 31.18 175.693 30.9 175.493 30.66C175.293 30.42 175.126 30.2133 174.993 30.04C174.873 29.8533 174.78 29.6933 174.713 29.56C174.66 29.4267 174.62 29.3 174.593 29.18H174.573C174.546 29.3 174.5 29.4333 174.433 29.58C174.38 29.7133 174.286 29.8733 174.153 30.06C174.033 30.2333 173.866 30.44 173.653 30.68C173.453 30.92 173.193 31.2 172.873 31.52C172.446 31.9733 172.026 32.4 171.613 32.8C171.213 33.1867 170.78 33.5933 170.313 34.02C170.153 34.1667 169.986 34.22 169.813 34.18C169.64 34.14 169.493 34.06 169.373 33.94C169.253 33.7933 169.186 33.64 169.173 33.48C169.173 33.3067 169.246 33.1533 169.393 33.02C170.366 32.1267 171.286 31.2267 172.153 30.32C172.473 29.9867 172.74 29.6733 172.953 29.38C173.166 29.0867 173.333 28.7867 173.453 28.48C173.586 28.16 173.68 27.8267 173.733 27.48C173.8 27.12 173.833 26.72 173.833 26.28V23.06C173.833 22.8333 173.906 22.6733 174.053 22.58C174.213 22.4867 174.386 22.44 174.573 22.44ZM182.813 21.52C183 21.52 183.166 21.5667 183.313 21.66C183.473 21.7533 183.553 21.9067 183.553 22.12V38.04C183.553 38.2533 183.473 38.4067 183.313 38.5C183.166 38.5933 183 38.64 182.813 38.64C182.626 38.64 182.46 38.5933 182.313 38.5C182.166 38.4067 182.093 38.2533 182.093 38.04V22.12C182.093 21.9067 182.166 21.7533 182.313 21.66C182.46 21.5667 182.626 21.52 182.813 21.52ZM197.276 22.94C197.45 22.94 197.576 23 197.656 23.12C197.736 23.24 197.776 23.3933 197.776 23.58C197.776 23.7533 197.736 23.9067 197.656 24.04C197.576 24.16 197.45 24.22 197.276 24.22H193.556V26.52C193.556 26.96 193.583 27.36 193.636 27.72C193.69 28.0667 193.776 28.3933 193.896 28.7C194.016 28.9933 194.176 29.2867 194.376 29.58C194.59 29.8733 194.856 30.18 195.176 30.5C195.63 30.9533 196.076 31.3933 196.516 31.82C196.956 32.2333 197.356 32.5933 197.716 32.9C197.863 33.0333 197.923 33.1933 197.896 33.38C197.883 33.5533 197.823 33.7 197.716 33.82C197.583 33.94 197.43 34.02 197.256 34.06C197.096 34.0867 196.943 34.0267 196.796 33.88C196.463 33.6 196.103 33.2733 195.716 32.9C195.33 32.5267 194.91 32.1133 194.456 31.66C194.136 31.34 193.876 31.0667 193.676 30.84C193.49 30.6133 193.336 30.4133 193.216 30.24C193.096 30.0667 193.01 29.92 192.956 29.8C192.903 29.6667 192.863 29.5467 192.836 29.44H192.816C192.79 29.56 192.75 29.6867 192.696 29.82C192.643 29.94 192.556 30.0867 192.436 30.26C192.316 30.4333 192.156 30.6333 191.956 30.86C191.756 31.0867 191.503 31.36 191.196 31.68C190.743 32.1333 190.31 32.56 189.896 32.96C189.483 33.3467 189.043 33.74 188.576 34.14C188.416 34.2867 188.25 34.34 188.076 34.3C187.903 34.26 187.763 34.18 187.656 34.06C187.536 33.9133 187.47 33.7533 187.456 33.58C187.443 33.4067 187.51 33.26 187.656 33.14C188.163 32.7 188.643 32.2667 189.096 31.84C189.55 31.4 190.003 30.9533 190.456 30.5C190.776 30.18 191.036 29.8733 191.236 29.58C191.45 29.2867 191.616 28.9933 191.736 28.7C191.856 28.3933 191.943 28.0667 191.996 27.72C192.05 27.36 192.076 26.96 192.076 26.52V24.22H188.276C188.103 24.22 187.976 24.16 187.896 24.04C187.816 23.9067 187.776 23.7533 187.776 23.58C187.776 23.3933 187.816 23.24 187.896 23.12C187.976 23 188.103 22.94 188.276 22.94H197.276ZM201.016 21.52C201.203 21.52 201.37 21.5667 201.516 21.66C201.676 21.7533 201.756 21.9067 201.756 22.12V38.04C201.756 38.2533 201.676 38.4067 201.516 38.5C201.37 38.5933 201.203 38.64 201.016 38.64C200.83 38.64 200.663 38.5933 200.516 38.5C200.37 38.4067 200.296 38.2533 200.296 38.04V22.12C200.296 21.9067 200.37 21.7533 200.516 21.66C200.663 21.5667 200.83 21.52 201.016 21.52ZM210.439 22.24C211.199 22.24 211.859 22.3467 212.419 22.56C212.993 22.7733 213.466 23.0733 213.839 23.46C214.213 23.8333 214.493 24.28 214.679 24.8C214.866 25.3067 214.959 25.86 214.959 26.46C214.959 27.0467 214.866 27.6 214.679 28.12C214.493 28.6267 214.213 29.0733 213.839 29.46C213.466 29.8333 212.993 30.1267 212.419 30.34C211.859 30.5533 211.199 30.66 210.439 30.66C209.679 30.66 209.013 30.5533 208.439 30.34C207.879 30.1267 207.413 29.8333 207.039 29.46C206.666 29.0733 206.386 28.6267 206.199 28.12C206.013 27.6 205.919 27.0467 205.919 26.46C205.919 25.86 206.013 25.3067 206.199 24.8C206.386 24.28 206.666 23.8333 207.039 23.46C207.413 23.0733 207.879 22.7733 208.439 22.56C209.013 22.3467 209.679 22.24 210.439 22.24ZM210.439 23.48C209.879 23.48 209.406 23.56 209.019 23.72C208.633 23.88 208.313 24.1 208.059 24.38C207.806 24.6467 207.619 24.96 207.499 25.32C207.393 25.68 207.339 26.06 207.339 26.46C207.339 26.86 207.393 27.24 207.499 27.6C207.619 27.96 207.806 28.2733 208.059 28.54C208.313 28.8067 208.633 29.02 209.019 29.18C209.406 29.34 209.879 29.42 210.439 29.42C210.999 29.42 211.473 29.34 211.859 29.18C212.246 29.02 212.566 28.8067 212.819 28.54C213.073 28.2733 213.253 27.96 213.359 27.6C213.479 27.24 213.539 26.86 213.539 26.46C213.539 26.06 213.479 25.68 213.359 25.32C213.253 24.96 213.073 24.6467 212.819 24.38C212.566 24.1 212.246 23.88 211.859 23.72C211.473 23.56 210.999 23.48 210.439 23.48ZM219.239 21.52C219.426 21.52 219.593 21.5667 219.739 21.66C219.886 21.7533 219.959 21.9067 219.959 22.12V30.7C219.959 30.9133 219.886 31.0667 219.739 31.16C219.593 31.2533 219.426 31.3 219.239 31.3C219.053 31.3 218.879 31.2533 218.719 31.16C218.573 31.0667 218.499 30.9133 218.499 30.7V22.12C218.499 21.9067 218.573 21.7533 218.719 21.66C218.879 21.5667 219.053 21.52 219.239 21.52ZM209.339 32.32C209.526 32.32 209.693 32.3667 209.839 32.46C209.986 32.5533 210.059 32.7 210.059 32.9V34.92H218.519V32.9C218.519 32.7 218.593 32.5533 218.739 32.46C218.886 32.3667 219.053 32.32 219.239 32.32C219.426 32.32 219.593 32.3667 219.739 32.46C219.886 32.5533 219.959 32.7 219.959 32.9V38.32C219.959 38.8267 219.859 39.1733 219.659 39.36C219.459 39.56 219.099 39.66 218.579 39.66H209.999C209.479 39.66 209.119 39.56 208.919 39.36C208.719 39.1733 208.619 38.8267 208.619 38.32V32.9C208.619 32.7 208.693 32.5533 208.839 32.46C208.986 32.3667 209.153 32.32 209.339 32.32ZM210.059 38.06C210.059 38.3133 210.186 38.44 210.439 38.44H218.139C218.393 38.44 218.519 38.3133 218.519 38.06V36.14H210.059V38.06ZM225.343 22.72C225.543 22.72 225.716 22.7667 225.863 22.86C226.009 22.9533 226.083 23.1067 226.083 23.32V32.32C226.083 32.5733 226.209 32.7 226.463 32.7C227.996 32.7 229.389 32.66 230.643 32.58C231.896 32.5 233.116 32.38 234.303 32.22C234.463 32.1933 234.596 32.2333 234.703 32.34C234.809 32.4333 234.876 32.5733 234.903 32.76C234.929 32.9467 234.903 33.1133 234.823 33.26C234.756 33.3933 234.643 33.4733 234.483 33.5C233.963 33.5667 233.409 33.6333 232.823 33.7C232.249 33.7533 231.616 33.8 230.923 33.84C230.243 33.88 229.496 33.9133 228.683 33.94C227.869 33.9533 226.976 33.96 226.003 33.96C225.483 33.96 225.123 33.8667 224.923 33.68C224.723 33.48 224.623 33.1267 224.623 32.62V23.32C224.623 23.1067 224.696 22.9533 224.843 22.86C224.989 22.7667 225.156 22.72 225.343 22.72ZM237.423 21.52C237.609 21.52 237.776 21.5667 237.923 21.66C238.083 21.7533 238.163 21.9067 238.163 22.12V38.04C238.163 38.2533 238.083 38.4067 237.923 38.5C237.776 38.5933 237.609 38.64 237.423 38.64C237.236 38.64 237.069 38.5933 236.923 38.5C236.776 38.4067 236.703 38.2533 236.703 38.04V22.12C236.703 21.9067 236.776 21.7533 236.923 21.66C237.069 21.5667 237.236 21.52 237.423 21.52ZM250.386 22.9C250.572 22.9 250.706 22.96 250.786 23.08C250.866 23.2 250.906 23.3467 250.906 23.52C250.906 23.7067 250.866 23.86 250.786 23.98C250.706 24.1 250.572 24.16 250.386 24.16H244.206C243.952 24.16 243.826 24.2867 243.826 24.54V32.38C243.826 32.6333 243.952 32.76 244.206 32.76C245.686 32.76 247.039 32.72 248.266 32.64C249.492 32.56 250.706 32.44 251.906 32.28C252.066 32.2533 252.199 32.2933 252.306 32.4C252.412 32.4933 252.479 32.6333 252.506 32.82C252.532 33.0067 252.506 33.1733 252.426 33.32C252.359 33.4533 252.246 33.5333 252.086 33.56C251.566 33.6267 251.012 33.6933 250.426 33.76C249.852 33.8133 249.226 33.86 248.546 33.9C247.879 33.94 247.146 33.9733 246.346 34C245.559 34.0133 244.692 34.02 243.746 34.02C243.226 34.02 242.866 33.9267 242.666 33.74C242.466 33.54 242.366 33.1867 242.366 32.68V24.24C242.366 23.7333 242.466 23.3867 242.666 23.2C242.866 23 243.226 22.9 243.746 22.9H250.386ZM254.766 21.52C254.952 21.52 255.119 21.5667 255.266 21.66C255.426 21.7533 255.506 21.9067 255.506 22.12V27.7H258.046C258.232 27.7 258.366 27.7667 258.446 27.9C258.526 28.02 258.566 28.1667 258.566 28.34C258.566 28.5267 258.526 28.6867 258.446 28.82C258.366 28.94 258.232 29 258.046 29H255.506V38.04C255.506 38.2533 255.426 38.4067 255.266 38.5C255.119 38.5933 254.952 38.64 254.766 38.64C254.579 38.64 254.412 38.5933 254.266 38.5C254.119 38.4067 254.046 38.2533 254.046 38.04V22.12C254.046 21.9067 254.119 21.7533 254.266 21.66C254.412 21.5667 254.579 21.52 254.766 21.52Z" fill="black"/>
<rect opacity="0.62" x="0.5" y="0.5" width="299" height="126" rx="9.5" stroke="black"/>
</svg>
