<svg width="160" height="50" viewBox="0 0 160 50" fill="none" xmlns="http://www.w3.org/2000/svg">
<rect width="160" height="50" rx="25" fill="#FF0000"/>
<path d="M51.42 17.66C51.42 18.2733 51.5133 18.8 51.7 19.24C51.9 19.6667 52.2133 20.0667 52.64 20.44C53.08 20.8133 53.4867 21.1467 53.86 21.44C54.2333 21.7333 54.5733 21.9933 54.88 22.22C55.16 22.42 55.3 22.6667 55.3 22.96C55.3133 23.24 55.2267 23.5067 55.04 23.76C54.8933 23.9733 54.6733 24.1333 54.38 24.24C54.0867 24.3467 53.7867 24.2933 53.48 24.08C53.24 23.9067 52.94 23.6867 52.58 23.42C52.2333 23.14 51.8667 22.8333 51.48 22.5C51.0133 22.1133 50.6867 21.8133 50.5 21.6C50.3267 21.3867 50.2133 21.18 50.16 20.98H50.14C50.0867 21.2067 49.96 21.4467 49.76 21.7C49.56 21.94 49.2267 22.2533 48.76 22.64C47.9867 23.2933 47.22 23.8933 46.46 24.44C46.1667 24.6533 45.8667 24.7067 45.56 24.6C45.2667 24.4933 45.0467 24.3333 44.9 24.12C44.7267 23.88 44.6333 23.6067 44.62 23.3C44.62 22.9933 44.7733 22.7267 45.08 22.5C45.52 22.18 45.94 21.8667 46.34 21.56C46.74 21.24 47.16 20.8933 47.6 20.52C48.0267 20.1467 48.3333 19.7467 48.52 19.32C48.72 18.88 48.82 18.3533 48.82 17.74V16.06C48.82 15.6733 48.9467 15.3933 49.2 15.22C49.4667 15.0467 49.7733 14.96 50.12 14.96C50.4667 14.96 50.7667 15.0467 51.02 15.22C51.2867 15.3933 51.42 15.6733 51.42 16.06V17.66ZM60.98 18.54C61.3 18.54 61.5333 18.6467 61.68 18.86C61.8267 19.0733 61.9 19.3333 61.9 19.64C61.9 19.9467 61.8267 20.2133 61.68 20.44C61.5333 20.6533 61.3 20.76 60.98 20.76H59.1V24.2C59.1 24.5733 58.9667 24.8467 58.7 25.02C58.4467 25.1933 58.1533 25.28 57.82 25.28C57.4867 25.28 57.1867 25.1933 56.92 25.02C56.6667 24.8467 56.54 24.5733 56.54 24.2V15.42C56.54 15.0467 56.6667 14.7733 56.92 14.6C57.1867 14.4267 57.4867 14.34 57.82 14.34C58.1533 14.34 58.4467 14.4267 58.7 14.6C58.9667 14.7733 59.1 15.0467 59.1 15.42V18.54H60.98ZM56.54 28.64C56.54 28.3333 56.3867 28.18 56.08 28.18H47.84C47.5333 28.18 47.3067 28.0733 47.16 27.86C47.0133 27.6467 46.94 27.3933 46.94 27.1C46.94 26.8067 47.0133 26.5533 47.16 26.34C47.3067 26.1267 47.5333 26.02 47.84 26.02H57.4C58.04 26.02 58.48 26.14 58.72 26.38C58.9733 26.62 59.1 27.0533 59.1 27.68V32.06C59.1 32.4333 58.9667 32.7067 58.7 32.88C58.4467 33.0533 58.1533 33.14 57.82 33.14C57.4867 33.14 57.1867 33.0533 56.92 32.88C56.6667 32.7067 56.54 32.4333 56.54 32.06V28.64ZM68.7431 18.02V19.64C68.7431 20.0267 68.7631 20.3867 68.8031 20.72C68.8431 21.04 68.9031 21.34 68.9831 21.62C69.0765 21.9 69.1898 22.1733 69.3231 22.44C69.4698 22.6933 69.6498 22.9467 69.8631 23.2C70.1831 23.5867 70.4965 23.94 70.8031 24.26C71.1098 24.58 71.3698 24.8533 71.5831 25.08C71.8098 25.32 71.9098 25.6 71.8831 25.92C71.8565 26.2267 71.7365 26.4867 71.5231 26.7C71.2965 26.9267 71.0298 27.0467 70.7231 27.06C70.4298 27.0733 70.1698 26.9667 69.9431 26.74C69.7965 26.5933 69.5965 26.3933 69.3431 26.14C69.1031 25.8733 68.8498 25.5867 68.5831 25.28C68.1698 24.8267 67.8965 24.4667 67.7631 24.2C67.6298 23.9333 67.5431 23.7 67.5031 23.5H67.4831C67.4565 23.7267 67.3698 23.98 67.2231 24.26C67.0765 24.54 66.7965 24.9133 66.3831 25.38C66.1165 25.6867 65.8498 25.98 65.5831 26.26C65.3165 26.54 65.0298 26.8333 64.7231 27.14C64.4965 27.3667 64.2231 27.4667 63.9031 27.44C63.5831 27.4 63.3231 27.28 63.1231 27.08C62.8965 26.8533 62.7631 26.5867 62.7231 26.28C62.6965 25.96 62.8031 25.6733 63.0431 25.42C63.4165 25.0333 63.7698 24.6667 64.1031 24.32C64.4498 23.96 64.7831 23.5867 65.1031 23.2C65.3165 22.9467 65.4898 22.6933 65.6231 22.44C65.7698 22.1733 65.8831 21.9 65.9631 21.62C66.0565 21.34 66.1231 21.04 66.1631 20.72C66.2031 20.3867 66.2231 20.0267 66.2231 19.64V18.02H63.9031C63.5965 18.02 63.3698 17.9133 63.2231 17.7C63.0765 17.4867 63.0031 17.2333 63.0031 16.94C63.0031 16.6333 63.0765 16.3733 63.2231 16.16C63.3698 15.9467 63.5965 15.84 63.9031 15.84H70.8631C71.1698 15.84 71.3965 15.9467 71.5431 16.16C71.6898 16.3733 71.7631 16.6333 71.7631 16.94C71.7631 17.2333 71.6898 17.4867 71.5431 17.7C71.3965 17.9133 71.1698 18.02 70.8631 18.02H68.7431ZM72.7431 22.22H71.3031C70.9965 22.22 70.7698 22.1133 70.6231 21.9C70.4765 21.6867 70.4031 21.4267 70.4031 21.12C70.4031 20.8133 70.4765 20.5533 70.6231 20.34C70.7698 20.1267 70.9965 20.02 71.3031 20.02H72.7431V15.54C72.7431 15.1933 72.8631 14.94 73.1031 14.78C73.3431 14.62 73.6165 14.54 73.9231 14.54C74.2165 14.54 74.4831 14.62 74.7231 14.78C74.9631 14.94 75.0831 15.1933 75.0831 15.54V29.98C75.0831 30.3267 74.9631 30.58 74.7231 30.74C74.4831 30.9 74.2165 30.98 73.9231 30.98C73.6165 30.98 73.3431 30.9 73.1031 30.74C72.8631 30.58 72.7431 30.3267 72.7431 29.98V22.22ZM76.3831 15.34C76.3831 14.9933 76.5031 14.74 76.7431 14.58C76.9831 14.42 77.2565 14.34 77.5631 14.34C77.8698 14.34 78.1431 14.42 78.3831 14.58C78.6231 14.74 78.7431 14.9933 78.7431 15.34V30.82C78.7431 31.1667 78.6231 31.42 78.3831 31.58C78.1431 31.74 77.8698 31.82 77.5631 31.82C77.2565 31.82 76.9831 31.74 76.7431 31.58C76.5031 31.42 76.3831 31.1667 76.3831 30.82V15.34ZM86.5063 19.92C87.1863 19.92 87.7996 20.02 88.3463 20.22C88.9063 20.4067 89.3729 20.6733 89.7463 21.02C90.1329 21.3667 90.4263 21.7933 90.6263 22.3C90.8396 22.7933 90.9463 23.34 90.9463 23.94C90.9463 24.54 90.8396 25.0933 90.6263 25.6C90.4263 26.0933 90.1329 26.5133 89.7463 26.86C89.3729 27.2067 88.9063 27.48 88.3463 27.68C87.7996 27.8667 87.1863 27.96 86.5063 27.96C85.8263 27.96 85.2063 27.8667 84.6463 27.68C84.0996 27.48 83.6329 27.2067 83.2463 26.86C82.8729 26.5133 82.5796 26.0933 82.3663 25.6C82.1663 25.0933 82.0663 24.54 82.0663 23.94C82.0663 23.34 82.1663 22.7933 82.3663 22.3C82.5796 21.7933 82.8729 21.3667 83.2463 21.02C83.6329 20.6733 84.0996 20.4067 84.6463 20.22C85.2063 20.02 85.8263 19.92 86.5063 19.92ZM85.2263 16.76V15.38C85.2263 15.0067 85.3529 14.7333 85.6063 14.56C85.8729 14.3867 86.1729 14.3 86.5063 14.3C86.8396 14.3 87.1329 14.3867 87.3863 14.56C87.6529 14.7333 87.7863 15.0067 87.7863 15.38V16.76H90.9263C91.2329 16.76 91.4596 16.8667 91.6063 17.08C91.7529 17.2933 91.8263 17.5467 91.8263 17.84C91.8263 18.1333 91.7529 18.3867 91.6063 18.6C91.4596 18.8133 91.2329 18.92 90.9263 18.92H81.8463C81.5396 18.92 81.3129 18.8133 81.1663 18.6C81.0196 18.3867 80.9463 18.1333 80.9463 17.84C80.9463 17.5467 81.0196 17.2933 81.1663 17.08C81.3129 16.8667 81.5396 16.76 81.8463 16.76H85.2263ZM86.5063 25.92C87.1463 25.92 87.6596 25.7467 88.0463 25.4C88.4329 25.04 88.6263 24.5533 88.6263 23.94C88.6263 23.3267 88.4329 22.8467 88.0463 22.5C87.6596 22.14 87.1463 21.96 86.5063 21.96C85.8663 21.96 85.3529 22.14 84.9663 22.5C84.5796 22.8467 84.3863 23.3267 84.3863 23.94C84.3863 24.5533 84.5796 25.04 84.9663 25.4C85.3529 25.7467 85.8663 25.92 86.5063 25.92ZM95.5063 20.44H97.3863C97.7063 20.44 97.9396 20.5467 98.0863 20.76C98.2329 20.9733 98.3063 21.2333 98.3063 21.54C98.3063 21.8467 98.2329 22.1133 98.0863 22.34C97.9396 22.5533 97.7063 22.66 97.3863 22.66H95.5063V30.74C95.5063 31.1133 95.3729 31.3867 95.1063 31.56C94.8529 31.7333 94.5663 31.82 94.2463 31.82C93.9129 31.82 93.6129 31.7333 93.3463 31.56C93.0929 31.3867 92.9663 31.1133 92.9663 30.74V15.42C92.9663 15.0467 93.0929 14.7733 93.3463 14.6C93.6129 14.4267 93.9129 14.34 94.2463 14.34C94.5663 14.34 94.8529 14.4267 95.1063 14.6C95.3729 14.7733 95.5063 15.0467 95.5063 15.42V20.44ZM101.109 17.88C100.803 17.88 100.576 17.7733 100.429 17.56C100.283 17.3467 100.209 17.0933 100.209 16.8C100.209 16.4933 100.283 16.2333 100.429 16.02C100.576 15.8067 100.803 15.7 101.109 15.7H107.129C107.769 15.7 108.209 15.82 108.449 16.06C108.703 16.3 108.829 16.7333 108.829 17.36V19.58C108.829 20.14 108.796 20.6467 108.729 21.1C108.663 21.5533 108.536 21.9867 108.349 22.4C108.176 22.8 107.929 23.1933 107.609 23.58C107.289 23.9667 106.869 24.3733 106.349 24.8C105.829 25.2267 105.196 25.6867 104.449 26.18C103.716 26.6733 102.843 27.2267 101.829 27.84C101.549 28.0133 101.256 28.0467 100.949 27.94C100.656 27.82 100.429 27.64 100.269 27.4C100.109 27.16 100.029 26.88 100.029 26.56C100.029 26.24 100.176 25.9867 100.469 25.8C101.376 25.2533 102.149 24.7733 102.789 24.36C103.443 23.9333 103.983 23.5533 104.409 23.22C104.849 22.8867 105.189 22.58 105.429 22.3C105.683 22.02 105.869 21.74 105.989 21.46C106.123 21.1667 106.203 20.8667 106.229 20.56C106.269 20.2533 106.289 19.9 106.289 19.5V18.34C106.289 18.0333 106.136 17.88 105.829 17.88H101.109ZM114.569 30.74C114.569 31.1133 114.436 31.3867 114.169 31.56C113.916 31.7333 113.616 31.82 113.269 31.82C112.936 31.82 112.636 31.7333 112.369 31.56C112.116 31.3867 111.989 31.1133 111.989 30.74V15.42C111.989 15.0467 112.116 14.7733 112.369 14.6C112.636 14.4267 112.936 14.34 113.269 14.34C113.616 14.34 113.916 14.4267 114.169 14.6C114.436 14.7733 114.569 15.0467 114.569 15.42V30.74Z" fill="white"/>
</svg>
